<?xml version="1.0" standalone="no"?>
<!DOCTYPE svg PUBLIC "-//W3C//DTD SVG 20010904//EN"
 "http://www.w3.org/TR/2001/REC-SVG-20010904/DTD/svg10.dtd">
<svg version="1.0" xmlns="http://www.w3.org/2000/svg"
 width="341.000000pt" height="341.000000pt" viewBox="0 0 341.000000 341.000000"
 preserveAspectRatio="xMidYMid meet">
<metadata>
Created by potrace 1.14, written by Peter Selinger 2001-2017
</metadata>
<g transform="translate(0.000000,341.000000) scale(0.100000,-0.100000)"
fill="#000000" stroke="none">
<path d="M3239 3266 c-5 -5 -161 -31 -494 -81 -189 -29 -286 -44 -485 -75 -74
-11 -180 -27 -235 -35 -55 -9 -125 -20 -155 -25 -30 -6 -104 -17 -165 -25 -60
-9 -117 -18 -125 -20 -8 -2 -80 -13 -160 -25 -80 -12 -253 -39 -385 -60 -132
-22 -294 -46 -360 -55 -66 -9 -151 -21 -190 -26 -38 -6 -80 -12 -92 -12 -13
-1 -23 -7 -23 -13 0 -6 -28 -71 -63 -145 -35 -74 -89 -191 -121 -260 -49 -104
-62 -125 -80 -125 -18 1 -21 -5 -24 -47 l-3 -48 53 4 53 4 -6 -221 c-4 -122
-7 -311 -8 -421 -1 -110 -5 -204 -9 -210 -4 -5 -35 -10 -69 -10 -59 -1 -62 0
-77 30 -13 27 -15 -6 -15 -383 -1 -358 1 -413 14 -418 10 -4 15 -20 15 -46 0
-35 -2 -39 -15 -28 -13 11 -15 -1 -15 -99 l0 -111 30 0 c17 0 30 -5 30 -11 0
-6 5 -7 13 -2 18 11 37 13 37 3 0 -5 -7 -13 -17 -18 -11 -7 -14 -15 -8 -28 4
-12 9 -14 12 -7 2 7 10 10 17 7 10 -4 12 2 8 22 -4 25 -3 26 22 22 14 -3 26
-2 26 3 0 4 12 4 28 0 15 -5 37 -4 50 0 12 5 22 5 22 2 0 -4 6 2 14 12 8 11
11 24 8 30 -14 22 -8 54 13 61 11 3 23 7 28 9 4 1 30 3 58 4 34 1 48 5 43 12
-5 8 21 10 90 7 53 -2 96 -1 96 2 0 3 16 4 35 2 19 -2 47 -1 61 2 24 7 25 8 9
20 -10 7 -15 18 -11 24 4 7 3 12 -3 12 -5 0 -11 10 -13 22 -2 18 -10 22 -38
22 -35 1 -35 1 -32 41 2 22 7 43 11 47 12 13 93 9 108 -5 2 -2 4 -49 6 -105 2
-91 4 -101 22 -107 39 -12 537 -26 550 -15 7 6 19 8 26 5 15 -5 155 -16 205
-15 17 0 47 -6 67 -15 42 -17 117 -20 117 -4 0 5 5 7 10 4 6 -3 10 -1 10 5 0
11 110 9 242 -6 39 -4 63 -3 72 5 11 9 88 12 295 9 l281 -3 0 -35 c0 -63 -9
-80 -39 -75 -44 8 -211 12 -211 5 0 -14 25 -30 48 -30 13 0 21 -4 17 -9 -3 -5
-1 -12 5 -16 5 -3 10 1 10 9 0 9 5 16 11 16 6 0 9 -7 5 -15 -3 -9 0 -15 9 -15
8 0 15 -4 15 -9 0 -5 8 -8 18 -6 9 1 22 -2 29 -7 9 -7 18 -5 28 6 18 18 35 21
35 6 0 -5 7 -7 15 -4 10 4 15 0 16 -12 0 -11 3 -14 6 -7 9 24 32 -10 22 -34
-11 -29 -3 -48 25 -61 25 -11 53 -1 42 16 -3 6 0 13 6 16 10 3 9 8 -4 15 -22
14 -13 46 18 60 13 6 34 16 47 22 13 6 27 9 33 8 19 -3 34 1 34 10 0 6 -20 13
-45 17 -37 5 -45 10 -45 28 0 11 -3 38 -7 59 l-6 38 64 -3 63 -3 4 -120 c2
-66 7 -122 13 -123 5 -2 7 -8 3 -13 -11 -19 8 -30 22 -12 8 10 14 14 13 8 -3
-23 2 -35 13 -33 8 2 12 -7 10 -24 l-3 -28 210 0 211 0 0 158 c0 146 -2 160
-20 177 -11 10 -21 30 -21 44 -2 24 -2 24 -6 4 -3 -16 -11 -23 -29 -23 -21 0
-24 5 -24 34 0 19 6 36 12 38 9 3 12 48 9 179 -6 277 -6 527 -1 524 3 -2 6 53
7 122 2 81 0 122 -7 118 -6 -3 -10 1 -10 9 0 8 5 18 10 21 6 3 9 25 9 48 -1
40 -2 40 -9 12 l-8 -30 -1 27 c0 15 4 30 9 33 7 4 7 12 0 25 -13 24 -13 40 0
20 7 -11 9 -3 7 27 -1 23 -6 45 -10 49 -4 4 -7 17 -7 28 0 13 3 17 8 9 4 -6 8
27 9 73 1 46 -2 86 -7 89 -6 4 -10 11 -10 16 0 6 5 7 10 4 7 -4 9 22 8 72 -2
55 -7 77 -15 76 -7 -2 -10 4 -6 13 5 12 7 13 14 3 11 -18 4 461 -10 746 -7
127 -9 245 -6 263 3 19 2 39 -3 45 -4 7 -19 58 -32 115 -22 93 -29 110 -41 98z
m-27 -68 c-9 -9 -15 -9 -24 0 -9 9 -7 12 12 12 19 0 21 -3 12 -12z m-152 -73
l0 -64 -47 17 c-27 9 -50 18 -52 19 -6 4 81 93 91 93 4 0 8 -29 8 -65z m94 50
c20 -8 36 -17 36 -19 0 -8 -52 -116 -55 -116 -5 0 -45 127 -45 141 0 13 23 11
64 -6z m-164 1 c0 -2 -13 -18 -28 -35 l-28 -33 -12 27 c-13 27 -12 28 33 38
30 7 35 7 35 3z m-110 -32 c0 -11 -5 -14 -16 -10 -9 3 -21 6 -27 7 -7 0 -3 4
8 9 29 13 35 12 35 -6z m210 -38 c0 -26 5 -46 13 -49 7 -3 5 -6 -5 -6 -11 -1
-18 6 -18 18 0 10 -3 33 -6 50 -4 20 -3 31 5 31 6 0 11 -18 11 -44z m140 26
c0 -9 -9 -23 -20 -30 -20 -12 -21 -12 -5 18 18 34 25 38 25 12z m-394 -23 c24
-11 44 -25 44 -32 -1 -12 -69 -91 -75 -85 -6 6 -55 131 -55 140 0 11 23 4 86
-23z m71 9 c-3 -8 -6 -5 -6 6 -1 11 2 17 5 13 3 -3 4 -12 1 -19z m-274 -23
c-27 -34 -28 -34 -40 -12 -16 30 -12 33 60 46 4 0 -5 -15 -20 -34z m77 -18 l0
-53 -44 10 -44 10 35 43 c20 24 39 43 44 43 5 0 9 -24 9 -53z m42 -44 c-8 -44
-22 -22 -21 35 l1 57 12 -35 c7 -18 10 -44 8 -57z m-286 48 c5 -5 16 -11 25
-13 14 -3 14 -7 -1 -41 l-17 -38 -27 45 c-14 24 -26 47 -26 50 0 9 35 7 46 -3z
m-153 -35 c-23 -32 -27 -32 -41 -2 -10 23 -9 25 21 28 42 4 42 4 20 -26z m67
-15 c0 -42 -3 -49 -17 -46 -10 2 -19 4 -20 5 -2 2 -7 3 -13 4 -5 0 -11 4 -12
7 -4 8 45 79 55 79 4 0 7 -22 7 -49z m55 -33 c1 -16 -3 -28 -10 -28 -13 0 -25
44 -25 89 l1 26 16 -30 c9 -16 17 -42 18 -57z m482 25 c-3 -10 -5 -2 -5 17 0
19 2 27 5 18 2 -10 2 -26 0 -35z m143 -4 c0 -4 -20 -9 -45 -11 -42 -3 -45 -1
-55 26 -5 16 -10 30 -10 31 0 6 110 -41 110 -46z m159 27 c-2 -2 -15 -7 -29
-10 l-25 -7 25 21 c15 14 26 18 28 10 2 -6 2 -13 1 -14z m-999 5 c0 -17 -22
-24 -31 -10 -6 10 -9 10 -9 2 0 -7 9 -17 20 -23 15 -8 20 -21 20 -53 0 -76
-13 -76 -64 -1 -25 37 -44 69 -43 70 1 2 15 5 31 8 16 3 31 8 34 11 9 9 42 6
42 -4z m40 -24 c0 -5 -4 -5 -10 -2 -5 3 -10 14 -10 23 0 15 2 15 10 2 5 -8 10
-19 10 -23z m278 -1 c-2 -35 -48 -106 -48 -74 0 19 37 108 45 108 3 0 5 -15 3
-34z m-478 -81 c-8 -9 -8 -15 0 -20 10 -6 14 -45 4 -45 -3 0 -14 10 -24 22
-13 17 -15 25 -7 31 9 5 7 10 -5 18 -16 9 -16 13 10 51 l27 42 3 -43 c2 -23
-2 -48 -8 -56z m72 13 c3 -16 0 -31 -5 -35 -18 -11 -38 25 -40 71 l-2 47 22
-27 c11 -15 23 -40 25 -56z m-119 41 l-18 -30 -19 23 c-18 22 -18 23 5 29 47
14 51 11 32 -22z m657 5 c47 -19 54 -44 11 -44 -23 0 -33 7 -45 30 -17 35 -18
35 34 14z m210 2 c0 -7 -9 -16 -21 -19 -20 -5 -20 -5 -3 14 20 23 24 23 24 5z
m-989 -5 c-7 -5 -11 -13 -8 -17 2 -5 0 -20 -5 -34 l-9 -24 -24 29 c-30 37 -31
49 -5 42 11 -3 23 -1 26 4 3 5 13 9 22 9 14 0 14 -2 3 -9z m699 -21 c0 -16 -4
-30 -10 -30 -11 0 -14 43 -3 53 11 12 13 8 13 -23z m194 14 c3 -8 2 -12 -4 -9
-6 3 -10 10 -10 16 0 14 7 11 14 -7z m-514 -3 c0 -17 -18 -21 -24 -6 -3 9 0
15 9 15 8 0 15 -4 15 -9z m-538 -30 l-17 -30 -23 22 -24 22 29 6 c51 12 53 11
35 -20z m38 -37 c0 -42 -4 -63 -10 -59 -6 4 -8 16 -5 28 4 15 3 18 -3 9 -19
-28 -24 21 -5 55 10 18 19 33 20 33 2 0 3 -30 3 -66z m67 -38 c-8 -36 -14 -43
-33 -43 -17 0 -24 5 -24 18 0 12 6 17 20 14 20 -4 29 10 11 17 -5 2 -12 26
-16 53 l-6 50 29 -33 c27 -31 28 -36 19 -76z m787 89 c3 -9 0 -15 -9 -15 -9 0
-12 6 -9 15 4 8 7 15 9 15 2 0 5 -7 9 -15z m588 -47 c-2 -45 -12 -82 -35 -130
-17 -38 -35 -68 -40 -68 -10 0 -4 230 6 248 5 6 23 12 40 12 l32 0 -3 -62z
m35 40 c-3 -8 -6 -5 -6 6 -1 11 2 17 5 13 3 -3 4 -12 1 -19z m-1327 -45 l0
-57 -21 20 c-19 20 -20 23 -5 58 8 20 17 36 20 36 4 0 6 -26 6 -57z m443 40
c9 -3 17 -14 17 -24 0 -30 -33 -22 -53 12 -17 30 -17 31 0 24 10 -4 26 -10 36
-12z m-733 -53 c0 -33 -1 -60 -3 -60 -2 0 -25 25 -52 57 -47 53 -48 56 -22 51
15 -3 30 -1 33 3 3 5 14 9 25 9 17 0 19 -7 19 -60z m46 24 c-3 -7 2 -15 10
-18 13 -5 12 -12 -7 -46 -13 -22 -26 -40 -31 -40 -9 0 -10 50 -2 103 6 31 9
35 21 26 8 -7 12 -18 9 -25z m1383 -16 c0 -41 -10 -74 -44 -143 l-43 -90 -1
137 -1 137 33 4 c17 2 38 5 45 5 8 2 12 -14 11 -50z m18 30 c-3 -8 -6 -5 -6 6
-1 11 2 17 5 13 3 -3 4 -12 1 -19z m-1114 -1 c3 -8 1 -20 -4 -28 -5 -9 -9 -9
-9 -2 0 6 -3 18 -6 27 -3 9 -2 16 4 16 5 0 12 -6 15 -13z m337 -3 c0 20 0 20
15 0 8 -10 15 -22 15 -26 0 -13 -48 -9 -53 5 -4 8 -6 7 -6 -3 -1 -9 -10 -16
-20 -16 -19 0 -19 1 1 29 19 26 21 27 34 10 13 -17 13 -17 14 1z m-830 1 c0
-12 -24 -55 -31 -55 -4 0 -15 10 -24 22 -14 21 -14 23 2 30 21 8 53 10 53 3z
m19 -52 c-2 -56 -2 -56 -20 -34 -17 21 -17 24 -2 57 9 19 18 34 20 34 2 0 3
-25 2 -57z m81 -14 c0 -10 5 -21 12 -25 7 -5 8 -2 3 7 -5 8 4 3 18 -10 15 -14
25 -26 22 -29 -11 -11 -91 -19 -107 -11 -19 10 -24 69 -12 117 l7 23 28 -27
c16 -15 29 -36 29 -45z m1364 -51 c3 -65 2 -118 -3 -118 -4 0 -9 37 -10 82 -1
45 -2 84 -3 87 0 3 0 21 1 40 2 67 9 24 15 -91z m13 85 c-3 -10 -5 -4 -5 12 0
17 2 24 5 18 2 -7 2 -21 0 -30z m-783 12 c3 -8 1 -15 -4 -15 -6 0 -10 7 -10
15 0 8 2 15 4 15 2 0 6 -7 10 -15z m716 -68 c0 -46 -3 -139 -7 -207 l-6 -123
-28 54 c-27 52 -28 60 -29 207 l0 152 35 0 35 0 0 -83z m-1551 43 c-13 -35
-16 -36 -43 -13 -18 15 -18 14 2 -8 22 -25 22 -27 6 -65 -20 -49 -20 -49 -39
-34 -13 11 -14 10 -9 -4 3 -9 1 -16 -5 -16 -8 0 -11 23 -9 73 l3 72 45 12 c25
6 48 12 52 12 4 1 2 -12 -3 -29z m101 -37 c0 -25 -18 -22 -28 5 -24 66 -24 68
2 37 14 -16 26 -35 26 -42z m1342 -19 c3 -91 -3 -132 -15 -100 -10 27 -8 186
2 186 5 0 11 -39 13 -86z m15 24 c-2 -13 -4 -3 -4 22 0 25 2 35 4 23 2 -13 2
-33 0 -45z m-850 20 c-3 -7 -5 -2 -5 12 0 14 2 19 5 13 2 -7 2 -19 0 -25z m93
-16 c-14 -5 -30 16 -30 38 1 10 7 7 21 -10 14 -17 17 -26 9 -28z m680 11 c0
-41 -1 -41 -24 5 -16 31 -16 32 4 32 16 0 20 -7 20 -37z m17 -45 c-2 -18 -4
-6 -4 27 0 33 2 48 4 33 2 -15 2 -42 0 -60z m-1510 -5 c2 -56 -1 -73 -12 -73
-7 0 -20 -3 -28 -6 -20 -7 -12 26 11 53 10 10 18 36 18 58 2 38 1 39 -8 12
l-10 -28 -25 22 c-22 22 -23 24 -6 31 10 4 27 6 38 5 18 -2 20 -10 22 -74z
m754 34 c-17 -17 -24 -1 -10 25 12 21 14 21 17 4 2 -10 -1 -23 -7 -29z m116
21 c-3 -8 -6 -5 -6 6 -1 11 2 17 5 13 3 -3 4 -12 1 -19z m33 7 c0 -8 -4 -15
-10 -15 -5 0 -10 7 -10 15 0 8 5 15 10 15 6 0 10 -7 10 -15z m478 -37 c-17
-33 -17 -33 -17 -6 -1 39 9 62 22 49 8 -8 6 -20 -5 -43z m-1427 -49 c-5 -13
-12 -32 -15 -43 -6 -17 -8 -16 -31 8 -25 27 -37 94 -15 81 7 -4 9 3 4 22 l-6
28 36 -36 c32 -31 36 -39 27 -60z m199 82 c11 17 42 -58 34 -83 -8 -25 -44 -5
-44 25 0 16 -3 18 -9 9 -4 -7 -6 -24 -3 -38 2 -13 0 -24 -6 -24 -6 0 -18 -3
-27 -7 -14 -5 -16 -2 -10 18 4 13 14 29 22 36 8 6 12 16 9 22 -4 6 -1 21 5 33
9 16 14 19 17 9 4 -11 6 -11 12 0z m1170 -78 c0 -65 -5 -98 -19 -128 l-19 -40
-1 121 c-1 122 1 134 26 134 10 0 13 -21 13 -87z m21 -30 c-7 -13 -9 -3 -6 37
6 83 8 90 12 33 2 -29 0 -61 -6 -70z m-1471 67 l0 -41 -41 33 -41 33 28 6 c53
12 54 11 54 -31z m670 -12 c0 -13 -58 -9 -63 5 -3 7 -6 5 -6 -5 -1 -17 -21
-27 -21 -10 0 16 32 52 41 47 5 -4 9 0 9 7 0 13 39 -31 40 -44z m136 25 c-7
-7 -26 7 -26 19 0 6 6 6 15 -2 9 -7 13 -15 11 -17z m589 -35 c9 -85 2 -224
-10 -221 -5 1 -11 11 -13 23 -2 11 -7 20 -12 20 -5 0 -12 15 -15 33 -4 17 -11
34 -15 37 -13 9 -24 53 -11 46 7 -5 11 4 11 26 0 34 32 98 49 98 5 0 12 -28
16 -62z m200 12 l19 -41 -27 -52 -26 -52 0 98 c-1 54 3 96 7 93 5 -3 17 -24
27 -46z m425 -8 c0 -28 -4 -42 -9 -36 -17 17 -18 99 -1 89 6 -3 10 -27 10 -53z
m-2072 4 c12 -11 22 -29 23 -40 0 -12 3 -15 6 -8 7 19 23 4 23 -23 0 -21 -4
-24 -35 -23 -22 1 -42 10 -57 25 -12 12 -16 23 -10 23 22 0 12 16 -10 17 -12
1 -34 11 -49 23 -38 27 -48 25 -20 -4 19 -20 22 -32 17 -63 -4 -28 -3 -32 3
-17 14 33 31 39 31 11 0 -26 -27 -44 -42 -29 -4 4 -17 32 -27 62 -18 50 -18
55 -3 67 10 7 29 13 44 13 22 0 25 -4 22 -22 -2 -13 -2 -18 2 -11 3 7 11 10
19 7 10 -4 12 1 8 18 -6 21 -5 22 13 8 10 -8 29 -23 42 -34z m1342 -5 c0 -27
-7 -64 -15 -82 -14 -34 -14 -33 -15 42 0 42 3 79 7 82 16 17 23 4 23 -42z m34
27 c-14 -48 -23 -54 -24 -15 0 27 4 37 16 37 11 0 14 -6 8 -22z m-80 -27 c10
-61 7 -137 -7 -170 -7 -17 -16 -28 -20 -24 -4 3 -7 -1 -7 -10 0 -9 -7 -35 -16
-57 l-16 -40 -20 25 c-20 25 -20 49 -2 120 4 16 3 17 -5 5 -8 -11 -11 12 -11
84 0 93 1 98 20 93 11 -3 22 -2 24 1 2 4 15 8 29 8 21 2 26 -4 31 -35z m-114
-128 c0 -108 -3 -153 -10 -143 -14 20 -8 300 6 300 2 0 4 -71 4 -157z m420
149 c0 -4 -5 -13 -11 -19 -7 -7 -12 -54 -13 -117 -1 -98 -2 -103 -16 -78 -11
21 -15 23 -18 10 -2 -9 2 -26 7 -37 14 -26 14 -31 -4 -31 -44 0 -38 109 12
218 25 55 43 78 43 54z m-1820 -8 c0 -1 -3 -10 -6 -18 -5 -13 -9 -14 -20 -5
-16 13 -11 26 11 26 8 0 15 -1 15 -3z m660 -9 c18 -21 6 -42 -23 -42 -31 0
-43 32 -19 47 23 13 28 12 42 -5z m670 -7 l9 -23 0 23 c1 12 7 22 14 22 10 0
13 -29 15 -122 1 -75 -2 -115 -7 -103 -5 11 -7 48 -5 83 1 36 -1 60 -7 57 -5
-4 -9 -27 -10 -53 l0 -47 -25 54 c-26 59 -29 82 -14 112 14 25 19 24 30 -3z
m-1436 -10 c-9 -32 -9 -32 -38 -13 -34 22 -34 2 0 -22 21 -15 24 -24 19 -46
-4 -15 -11 -27 -16 -27 -16 0 -49 40 -49 59 0 11 -3 26 -6 34 -4 11 6 18 33
25 60 16 65 15 57 -10z m64 -1 c19 -21 20 -27 10 -55 -12 -31 -32 -39 -34 -14
-1 7 -2 18 -3 25 -1 8 -4 7 -11 -3 -8 -12 -10 -9 -10 12 0 31 9 58 19 58 4 0
17 -10 29 -23z m1332 16 c0 -10 -20 -40 -20 -31 0 3 -3 13 -6 22 -4 11 -1 16
10 16 9 0 16 -3 16 -7z m-92 -22 c3 -8 0 -11 -6 -7 -6 3 -8 -1 -6 -12 3 -9 -4
-38 -15 -62 -22 -50 -19 -56 -24 53 -1 20 3 39 8 41 17 8 38 1 43 -13z m1269
-3 c-3 -8 -6 -5 -6 6 -1 11 2 17 5 13 3 -3 4 -12 1 -19z m-2687 -14 l0 -25
-31 18 c-30 18 -30 18 -7 25 37 10 38 9 38 -18z m237 4 c-3 -8 -6 -5 -6 6 -1
11 2 17 5 13 3 -3 4 -12 1 -19z m29 -5 c-3 -8 -1 -11 4 -8 6 3 10 4 10 1 0 -2
3 -12 6 -20 4 -12 2 -15 -9 -11 -11 5 -13 0 -10 -19 3 -15 1 -26 -5 -26 -6 0
-11 23 -11 55 0 34 4 53 10 49 6 -3 8 -13 5 -21z m1041 -125 c1 -88 -2 -131
-7 -113 -7 26 -8 23 -9 -22 -1 -50 -13 -69 -24 -39 -9 22 5 96 17 96 7 0 11
27 11 78 0 42 -1 69 -3 59 -2 -9 -8 -14 -14 -11 -6 4 -8 -6 -4 -27 2 -19 -1
-61 -8 -94 l-13 -60 -15 35 c-8 19 -13 53 -12 75 3 40 3 40 -4 5 -5 -24 -9
-30 -14 -19 -3 9 -2 33 2 55 5 21 13 57 17 79 7 34 13 41 38 46 17 3 33 4 36
3 3 -2 6 -67 6 -146z m47 68 c4 -82 0 -110 -15 -100 -5 3 -9 46 -9 95 0 113
19 117 24 5z m1313 47 c-3 -10 -5 -4 -5 12 0 17 2 24 5 18 2 -7 2 -21 0 -30z
m-2679 -31 c14 -18 16 -72 3 -72 -5 0 -27 17 -49 38 -36 34 -43 52 -33 90 2 6
65 -40 79 -56z m2041 -96 c-9 -8 -10 -5 -5 14 3 14 7 52 8 85 2 59 2 58 5 -14
3 -48 0 -78 -8 -85z m-2139 124 c0 -23 -8 -25 -32 -6 -25 18 -22 26 7 26 18 0
25 -5 25 -20z m1277 -35 c-1 -30 -5 -55 -10 -55 -4 0 -5 -5 -1 -12 4 -7 3 -8
-4 -4 -8 5 -12 -1 -12 -16 0 -32 -31 -109 -41 -102 -5 3 -9 -6 -9 -20 0 -41
-10 -58 -26 -45 -21 17 -13 206 7 193 5 -3 8 12 8 33 -1 38 -1 38 -9 8 -7 -28
-8 -28 -9 12 0 23 4 45 9 48 6 3 10 0 10 -7 0 -9 2 -10 8 -1 4 6 21 13 37 16
17 2 33 5 36 6 4 0 6 -24 6 -54z m36 35 c-3 -11 -7 -20 -9 -20 -2 0 -4 9 -4
20 0 11 4 20 9 20 5 0 7 -9 4 -20z m994 -57 c-2 -16 -4 -3 -4 27 0 30 2 43 4
28 2 -16 2 -40 0 -55z m294 42 c9 6 13 -7 9 -39 -1 -10 2 -16 7 -13 4 3 9 -6
9 -19 1 -13 -2 -21 -7 -18 -5 3 -9 12 -9 20 0 20 -18 18 -23 -3 -3 -10 -5 -2
-6 17 0 27 2 32 10 20 9 -12 9 -11 4 5 -4 11 -9 29 -10 40 -2 14 -1 15 2 2 2
-9 9 -15 14 -12z m-997 -26 c-3 -5 -1 -9 4 -9 16 0 52 -77 52 -111 0 -24 3
-30 9 -20 7 11 11 5 16 -23 4 -20 5 -39 2 -42 -9 -9 -57 107 -58 140 0 26 -2
28 -9 11 -8 -19 -9 -19 -9 2 -1 12 -5 25 -11 28 -5 3 -10 23 -9 43 0 33 1 35
10 14 5 -13 7 -28 3 -33z m954 -61 c-11 -6 -11 -10 0 -17 27 -17 9 -62 -35
-88 l-43 -25 0 35 c0 20 18 71 43 123 l42 89 3 -54 c2 -36 -1 -57 -10 -63z
m-2580 19 c-6 -18 -12 -34 -14 -36 -4 -4 -33 65 -41 98 l-6 24 36 -27 c33 -26
35 -29 25 -59z m652 62 c0 -5 -4 -9 -10 -9 -5 0 -10 7 -10 16 0 8 5 12 10 9 6
-3 10 -10 10 -16z m506 -33 c-3 -30 -10 -65 -15 -78 -8 -21 -11 -18 -37 39
-18 41 -31 58 -36 50 -4 -6 -8 -7 -8 -2 0 20 16 33 45 38 61 9 58 11 51 -47z
m423 -1 c0 -16 -5 -39 -10 -50 -7 -16 -9 -14 -6 13 2 17 0 32 -5 32 -4 0 -9
-12 -9 -27 -2 -48 -7 -77 -19 -108 -9 -24 -13 -27 -21 -15 -8 12 -10 9 -6 -12
6 -39 -7 -55 -28 -35 -15 15 -13 23 20 99 20 46 44 100 53 120 18 42 32 34 31
-17z m1141 -21 c-7 -24 -16 -41 -21 -38 -14 8 -11 40 9 80 22 47 29 21 12 -42z
m37 14 c-2 -13 -4 -3 -4 22 0 25 2 35 4 23 2 -13 2 -33 0 -45z m-2390 22 c0
-22 -5 -30 -19 -30 -10 0 -18 3 -18 6 0 4 32 52 36 54 0 0 1 -13 1 -30z m173
-2 c0 -5 -9 -8 -20 -8 -13 0 -20 7 -20 20 0 18 2 19 20 8 11 -7 20 -16 20 -20z
m637 -65 c-2 -21 -4 -6 -4 32 0 39 2 55 4 38 2 -18 2 -50 0 -70z m-191 51 c14
-34 14 -40 -7 -90 -12 -29 -27 -50 -32 -47 -6 4 -8 0 -5 -8 3 -8 2 -23 -3 -34
-4 -11 -7 27 -7 90 0 104 5 124 31 125 4 0 15 -16 23 -36z m34 17 c0 -26 -16
-35 -24 -15 -10 25 -7 34 9 34 8 0 15 -9 15 -19z m1208 -134 c-7 -7 -21 -16
-30 -20 -27 -10 -23 36 9 111 l28 64 3 -71 c2 -49 -1 -76 -10 -84z m84 -2 c-4
-14 -9 -6 -18 30 -12 51 -17 46 -15 -15 l1 -35 -14 26 c-10 16 -14 49 -13 87
l1 62 32 -67 c18 -39 29 -76 26 -88z m-2012 103 c0 -2 -9 -4 -20 -5 -15 -1
-20 4 -20 25 l0 26 20 -22 c11 -12 20 -23 20 -24z m617 -95 c-3 -181 -21 -180
-25 2 -3 118 -2 135 12 135 14 0 16 -18 13 -137z m149 67 l10 45 37 -88 c37
-89 46 -155 28 -202 -7 -17 -11 -13 -29 29 -12 27 -22 52 -22 55 0 4 -9 25
-20 46 -11 22 -18 45 -16 52 3 6 -2 14 -10 17 -15 6 -20 71 -6 103 5 12 9 -2
12 -42 l6 -60 10 45z m1374 8 c-1 -48 -3 -59 -11 -45 -9 15 -3 107 7 107 2 0
4 -28 4 -62z m-2545 -184 l-6 -52 -29 14 c-41 21 -58 43 -39 54 10 7 16 3 22
-12 4 -11 10 -19 12 -16 3 3 -1 20 -9 39 -10 23 -11 41 -5 58 6 13 7 31 5 38
-4 9 -1 11 6 7 8 -5 9 2 4 22 -4 20 -4 24 3 15 7 -11 13 -3 23 30 l13 44 3
-95 c2 -52 0 -118 -3 -146z m984 55 c0 -190 -7 -212 -38 -132 -15 39 -41 76
-29 43 21 -59 21 -65 6 -52 -11 9 -15 31 -15 77 0 36 3 65 7 65 10 0 0 92 -11
105 -5 5 -9 -11 -8 -40 1 -133 -2 -190 -11 -170 -5 11 -9 16 -9 12 -1 -5 -5
-6 -11 -2 -6 4 -6 15 0 30 7 18 6 25 -3 26 -9 0 -9 2 0 6 8 3 11 15 8 31 -5
23 -4 24 4 7 10 -20 10 -20 10 1 1 11 -4 25 -9 30 -13 13 7 75 27 87 7 4 13
16 13 26 0 24 9 31 42 31 l28 0 -1 -181z m1918 144 c-3 -10 -5 -4 -5 12 0 17
2 24 5 18 2 -7 2 -21 0 -30z m-2637 0 c0 -29 -12 -24 -17 7 -2 11 2 20 7 20 6
0 10 -12 10 -27z m588 -23 c-3 -57 -66 -221 -68 -175 l-2 30 -9 -30 c-5 -16
-6 -38 -3 -47 3 -11 0 -18 -8 -18 -29 0 -35 15 -28 60 4 25 8 35 9 23 0 -12 6
-25 13 -29 8 -5 9 0 4 17 -31 104 -36 196 -10 206 8 3 20 1 26 -5 8 -8 14 -7
23 2 7 6 22 12 33 12 19 0 21 -6 20 -46z m34 33 c-5 -10 -12 -25 -15 -33 -3
-8 -6 0 -6 18 -1 22 4 32 14 32 12 0 13 -5 7 -17z m-692 -72 c-4 -14 -13 -25
-19 -23 -8 2 -10 -4 -6 -18 3 -11 2 -20 -2 -20 -8 0 -33 98 -33 129 0 6 15 0
34 -15 28 -23 32 -31 26 -53z m160 69 c0 -5 -4 -10 -10 -10 -5 0 -10 5 -10 10
0 6 5 10 10 10 6 0 10 -4 10 -10z m1704 -45 c23 -42 25 -53 15 -77 -24 -57
-49 -19 -46 70 0 34 2 60 3 59 1 -1 14 -24 28 -52z m-2023 -162 l-20 -58 4 45
c2 25 4 86 5 135 l3 90 14 -77 c14 -73 14 -80 -6 -135z m688 160 l0 -48 -19
40 c-24 52 -24 55 0 55 17 0 20 -6 19 -47z m708 15 c-3 -7 -5 -2 -5 12 0 14 2
19 5 13 2 -7 2 -19 0 -25z m568 -110 c-14 -21 -15 -20 -15 34 0 32 6 69 13 85
11 26 12 24 15 -35 2 -44 -2 -69 -13 -84z m-1873 80 c2 -20 0 -34 -4 -32 -4 3
-8 -1 -8 -8 -1 -9 -4 -8 -10 3 -6 10 -5 30 2 55 12 42 15 39 20 -18z m518 47
c0 -12 -29 -75 -34 -75 -4 0 -6 18 -6 40 0 33 3 40 20 40 11 0 20 -2 20 -5z
m-101 -117 c0 -63 -6 -122 -12 -133 -6 -11 -10 -24 -9 -28 1 -5 -5 -7 -15 -5
-14 3 -18 13 -17 46 0 29 -2 39 -8 30 -6 -9 -7 -6 -3 8 3 12 6 58 7 102 1 86
-2 81 51 91 4 0 7 -50 6 -111z m47 54 c-3 -31 -12 -73 -20 -92 -15 -35 -15
-35 -15 50 0 79 1 83 14 60 16 -28 21 -9 5 21 -9 15 -7 19 5 19 14 0 16 -9 11
-58z m1994 11 c0 -40 -15 -32 -16 9 -1 26 2 35 7 27 5 -8 9 -24 9 -36z m-2512
-23 l0 -25 -8 25 c-4 14 -8 34 -8 45 l-1 20 9 -20 c5 -11 8 -31 8 -45z m399
-52 c-4 -62 -7 -138 -8 -168 0 -40 -3 -50 -9 -35 -10 24 -13 299 -3 308 21 22
26 0 20 -105z m246 -102 l-8 -111 -23 46 c-12 25 -20 54 -16 63 3 9 1 16 -5
16 -29 0 -50 119 -23 128 8 2 12 -10 12 -45 0 -26 5 -55 10 -63 7 -10 10 17
10 85 l1 100 25 -54 c23 -52 24 -60 17 -165z m-333 197 c0 -5 -5 -15 -10 -23
-8 -12 -10 -11 -10 8 0 12 5 22 10 22 6 0 10 -3 10 -7z m48 -71 c2 -60 0 -72
-13 -72 -20 0 -30 26 -18 43 10 12 27 94 18 85 -3 -2 -13 -31 -23 -64 -15 -46
-21 -55 -27 -40 -5 11 -3 21 4 26 7 4 12 11 11 16 -3 19 24 84 34 81 6 -2 12
-35 14 -75z m229 41 c-3 -10 -5 -4 -5 12 0 17 2 24 5 18 2 -7 2 -21 0 -30z
m1104 -65 c5 -10 14 -26 21 -37 6 -11 8 -26 3 -37 -7 -16 -9 -12 -15 19 -4 20
-10 41 -15 45 -4 4 -5 -5 -1 -20 8 -36 -5 -36 -27 1 -11 19 -16 47 -15 81 l2
52 19 -44 c11 -24 23 -51 28 -60z m405 5 c-3 -3 -12 -3 -20 0 -14 5 -13 12 2
53 l17 47 3 -48 c2 -26 1 -49 -2 -52z m557 77 c3 -11 1 -20 -4 -20 -5 0 -9 2
-9 4 0 2 -3 11 -6 20 -3 9 -2 16 4 16 5 0 12 -9 15 -20z m-2423 3 c0 -5 -6
-15 -13 -24 -10 -14 -16 -15 -30 -4 -9 7 -17 15 -17 19 0 11 28 6 33 -6 3 -8
6 -6 6 5 1 9 6 17 11 17 6 0 10 -3 10 -7z m30 -5 c0 6 5 12 10 12 12 0 13 -54
2 -90 -6 -22 -8 -19 -13 20 -6 43 -6 42 -7 -18 -1 -39 -6 -61 -12 -57 -5 3
-10 0 -10 -7 0 -21 -20 14 -20 35 0 11 4 15 12 11 8 -5 9 0 5 17 -8 30 13 95
25 76 6 -9 8 -9 8 1z m1069 -55 c-1 -43 -2 -45 -9 -18 -4 17 -5 -17 -2 -75 l5
-105 -22 19 c-11 11 -21 30 -21 43 0 12 -4 23 -10 23 -5 0 -10 -5 -10 -12 0
-6 -2 -9 -5 -6 -8 8 16 58 25 53 4 -3 10 13 14 35 6 37 25 90 33 90 1 0 2 -21
2 -47z m272 -82 c-5 -4 -6 -23 -1 -49 8 -47 2 -53 -20 -19 -28 41 -28 72 -4
124 13 26 25 55 26 63 1 8 3 -14 5 -49 2 -35 0 -67 -6 -70z m1185 102 c-10
-10 -19 5 -10 18 6 11 8 11 12 0 2 -7 1 -15 -2 -18z m71 -5 c-3 -7 -5 -2 -5
12 0 14 2 19 5 13 2 -7 2 -19 0 -25z m-1836 -5 c-12 -20 -14 -14 -5 12 4 9 9
14 11 11 3 -2 0 -13 -6 -23z m369 -70 c0 -13 6 -23 13 -24 9 0 9 -2 -1 -6 -6
-2 -10 -9 -6 -14 9 -15 -8 -10 -28 8 -13 12 -18 30 -18 72 l1 56 19 -35 c11
-19 19 -45 20 -57z m501 37 c-5 -23 -8 -59 -7 -81 l3 -38 -18 24 c-11 13 -19
29 -19 35 0 15 43 110 48 106 1 -2 -2 -22 -7 -46z m-824 18 c-3 -8 -6 -5 -6 6
-1 11 2 17 5 13 3 -3 4 -12 1 -19z m1740 -10 c-3 -7 -5 -2 -5 12 0 14 2 19 5
13 2 -7 2 -19 0 -25z m-2775 -61 c-2 -9 -8 -19 -12 -22 -10 -6 -21 69 -13 91
5 14 9 11 18 -17 7 -19 10 -42 7 -52z m40 14 c-9 -25 -24 19 -16 47 l7 27 7
-30 c3 -16 4 -36 2 -44z m61 -56 l-7 -120 -13 70 c-11 61 -11 76 4 122 9 29
18 52 19 50 1 -1 0 -56 -3 -122z m77 104 c0 -5 -4 -9 -10 -9 -5 0 -10 7 -10
16 0 8 5 12 10 9 6 -3 10 -10 10 -16z m2498 -41 c-13 -23 -13 -22 -16 11 -2
20 2 37 10 42 18 12 23 -24 6 -53z m-678 31 c0 -5 -7 -9 -15 -9 -15 0 -20 12
-9 23 8 8 24 -1 24 -14z m432 -33 c-9 -18 -11 -16 -11 19 0 33 1 37 10 21 8
-12 8 -25 1 -40z m-2626 3 c-9 -19 -15 -29 -16 -22 0 15 22 64 27 60 2 -2 -3
-19 -11 -38z m1204 -61 c0 -100 0 -101 -20 -83 -11 10 -20 25 -21 34 0 12 -2
13 -6 2 -4 -10 -7 -10 -13 -1 -9 15 40 150 55 150 3 0 5 -46 5 -102z m1370 25
c0 -7 -9 -13 -20 -13 -17 0 -20 7 -20 48 l1 47 19 -35 c11 -19 19 -41 20 -47z
m267 55 c-3 -8 -6 -5 -6 6 -1 11 2 17 5 13 3 -3 4 -12 1 -19z m-1904 -85 c-2
-53 -5 -98 -8 -101 -2 -3 -9 8 -15 23 -6 17 -15 25 -24 22 -15 -6 -11 15 13
76 6 15 15 38 21 52 5 14 11 25 13 25 2 0 2 -43 0 -97z m294 35 c-2 -13 -4 -3
-4 22 0 25 2 35 4 23 2 -13 2 -33 0 -45z m1283 30 c-1 -26 -3 -30 -10 -16 -6
9 -7 23 -4 32 9 25 14 19 14 -16z m157 10 c-3 -8 -6 -5 -6 6 -1 11 2 17 5 13
3 -3 4 -12 1 -19z m98 12 c-3 -5 -12 -10 -18 -10 -7 0 -6 4 3 10 19 12 23 12
15 0z m160 0 c3 -5 1 -10 -4 -10 -6 0 -11 5 -11 10 0 6 2 10 4 10 3 0 8 -4 11
-10z m-1774 -27 c-12 -20 -14 -14 -5 12 4 9 9 14 11 11 3 -2 0 -13 -6 -23z
m1196 -5 c-3 -7 -5 -2 -5 12 0 14 2 19 5 13 2 -7 2 -19 0 -25z m-2000 -10 c-3
-7 -5 -2 -5 12 0 14 2 19 5 13 2 -7 2 -19 0 -25z m367 -50 c-3 -5 0 -7 8 -6 8
2 14 -9 16 -30 l3 -33 -24 21 c-20 18 -24 30 -24 77 l0 55 13 -38 c7 -21 11
-41 8 -46z m552 47 c7 -19 14 -44 14 -56 0 -21 -1 -22 -20 -4 -13 12 -20 31
-20 57 0 47 7 48 26 3z m974 0 c0 -5 -5 -3 -10 5 -5 8 -10 20 -10 25 0 6 5 3
10 -5 5 -8 10 -19 10 -25z m50 9 c0 -8 -4 -14 -8 -14 -4 0 -8 9 -8 19 0 11 4
17 8 15 4 -3 8 -12 8 -20z m87 4 c-3 -8 -6 -5 -6 6 -1 11 2 17 5 13 3 -3 4
-12 1 -19z m519 -5 c-10 -10 -19 5 -10 18 6 11 8 11 12 0 2 -7 1 -15 -2 -18z
m-922 -27 c-5 -14 -9 -15 -15 -4 -5 7 -9 22 -9 33 0 17 2 18 15 4 9 -9 13 -23
9 -33z m736 34 c0 -5 -5 -10 -11 -10 -5 0 -7 5 -4 10 3 6 8 10 11 10 2 0 4 -4
4 -10z m55 -9 c-3 -6 -16 -11 -28 -11 -21 1 -21 1 3 15 27 14 36 13 25 -4z
m-838 -43 c-2 -13 -4 -5 -4 17 -1 22 1 32 4 23 2 -10 2 -28 0 -40z m-1768 -25
c1 -34 -14 -52 -31 -35 -7 7 -6 25 3 57 15 49 27 40 28 -22z m1694 -12 c-3
-14 -13 -21 -29 -21 -22 0 -24 4 -24 53 l1 52 29 -32 c19 -21 27 -38 23 -52z
m-1364 -33 c1 -10 -3 -18 -8 -18 -17 0 -26 24 -27 74 l-1 49 18 -44 c10 -24
18 -52 18 -61z m21 48 c-1 -45 -13 -35 -25 21 -5 28 -4 32 9 27 11 -4 16 -19
16 -48z m-138 -24 l-10 -27 -1 25 c-1 14 -4 36 -7 50 l-6 25 17 -23 c13 -18
14 -28 7 -50z m59 12 c-2 -38 -6 -52 -12 -43 -5 8 -9 22 -9 31 0 16 17 68 22
68 2 0 1 -25 -1 -56z m247 -6 c-1 -70 -7 -92 -19 -62 -11 29 -10 70 3 99 6 14
12 25 14 25 1 0 2 -28 2 -62z m455 47 c-3 -9 -8 -14 -10 -11 -3 3 -2 9 2 15 9
16 15 13 8 -4z m437 -74 c0 -16 -6 -21 -29 -21 -34 0 -38 7 -33 62 l4 41 29
-31 c16 -17 29 -40 29 -51z m103 72 c-7 -3 -13 -12 -13 -21 0 -9 -5 -24 -10
-32 -7 -11 -10 -6 -10 20 0 30 4 36 23 37 12 0 16 -1 10 -4z m337 -41 c-28 -5
-33 1 -25 29 l8 23 20 -25 19 -24 -22 -3z m324 39 c3 -5 -1 -12 -10 -15 -25
-10 -34 -7 -28 9 7 17 30 20 38 6z m-2142 -33 c-8 -8 -9 -4 -5 13 4 13 8 18
11 10 2 -7 -1 -18 -6 -23z m1398 6 c0 -8 -4 -12 -10 -9 -5 3 -10 13 -10 21 0
8 5 12 10 9 6 -3 10 -13 10 -21z m320 -14 c0 -12 -3 -12 -16 2 -9 9 -13 21 -9
28 9 14 25 -5 25 -30z m1086 32 c17 -11 23 -72 8 -72 -16 0 -34 31 -34 59 0
22 7 26 26 13z m-1619 -24 c-3 -8 -6 -5 -6 6 -1 11 2 17 5 13 3 -3 4 -12 1
-19z m342 -10 c24 -28 24 -28 3 -28 -23 0 -47 34 -36 51 3 6 7 9 8 7 0 -2 12
-15 25 -30z m1179 -15 c-3 -41 -6 -48 -25 -51 -20 -3 -23 1 -23 31 0 49 9 67
32 67 17 0 19 -6 16 -47z m19 10 c-3 -10 -5 -4 -5 12 0 17 2 24 5 18 2 -7 2
-21 0 -30z m-2682 -8 c17 -14 29 -55 15 -55 -6 0 -13 8 -16 18 -3 9 -10 25
-15 34 -5 10 -9 23 -8 30 0 8 3 7 6 -2 3 -8 11 -20 18 -25z m852 13 c-3 -8 -6
-5 -6 6 -1 11 2 17 5 13 3 -3 4 -12 1 -19z m1713 -28 l0 -50 -40 0 -40 0 16
38 c9 20 18 43 21 50 3 6 14 12 24 12 16 0 19 -8 19 -50z m29 20 c-6 -16 -13
-30 -15 -30 -2 0 -4 14 -4 30 0 20 5 30 14 30 12 0 13 -6 5 -30z m-2885 -21
c-8 -17 -17 -29 -20 -27 -8 8 18 68 27 62 5 -3 2 -19 -7 -35z m59 -32 c-3 -6
-1 -7 5 -3 7 4 12 2 12 -3 0 -6 -11 -11 -25 -11 -25 0 -35 23 -15 35 6 3 10
12 10 18 0 7 -4 6 -10 -3 -8 -12 -10 -11 -10 6 0 11 3 24 7 27 9 10 34 -53 26
-66z m964 54 c10 -16 16 -101 8 -101 -17 0 -35 39 -35 76 0 47 8 55 27 25z
m343 -40 c0 -15 -25 -31 -47 -31 -21 0 -23 5 -23 46 l0 45 35 -27 c19 -14 35
-29 35 -33z m1360 12 l-1 -48 -19 35 c-24 44 -24 47 -2 53 9 3 18 5 20 6 1 0
2 -20 2 -46z m60 40 c-1 -5 -9 -24 -20 -43 l-19 -35 -1 43 c0 35 3 42 20 42
11 0 20 -3 20 -7z m-2666 -25 c17 -24 11 -42 -10 -34 -8 3 -14 0 -14 -7 -1
-14 -29 33 -30 48 0 20 40 14 54 -7z m286 -9 c0 -11 -4 -17 -10 -14 -5 3 -10
15 -10 26 0 11 5 17 10 14 6 -3 10 -15 10 -26z m880 -10 c0 -24 -4 -38 -10
-34 -17 10 -11 75 7 75 2 0 3 -18 3 -41z m1357 29 c6 -7 13 -30 17 -50 l7 -38
-40 0 -40 0 5 38 c8 53 12 62 27 62 8 0 19 -6 24 -12z m371 -23 c-3 -36 -18
-31 -18 6 0 17 4 28 10 24 5 -3 9 -17 8 -30z m-2123 16 c3 -6 -1 -25 -9 -43
l-14 -33 -1 43 c-1 39 10 54 24 33z m620 -39 c-9 -10 -33 7 -38 28 l-6 22 25
-23 c13 -12 22 -24 19 -27z m216 25 c-10 -9 -11 -8 -5 6 3 10 9 15 12 12 3 -3
0 -11 -7 -18z m-934 -57 c0 -30 -3 -35 -25 -37 -16 0 -20 2 -12 7 8 5 9 9 1
14 -6 4 -11 25 -11 47 l0 40 24 -18 c17 -13 23 -28 23 -53z m410 28 c10 -23 9
-27 -8 -31 -25 -7 -30 4 -23 43 7 33 13 31 31 -12z m263 11 c0 -4 -9 -9 -20
-12 -23 -6 -24 -3 -9 25 9 17 13 18 20 7 5 -8 9 -17 9 -20z m-1019 -6 c-12
-20 -14 -14 -5 12 4 9 9 14 11 11 3 -2 0 -13 -6 -23z m194 -12 c-11 -46 -25
-48 -25 -3 0 34 3 40 16 35 11 -4 14 -13 9 -32z m459 -8 c8 -20 5 -23 -28 -29
-25 -4 -26 -2 -26 36 l0 40 24 -15 c13 -9 27 -23 30 -32z m-570 15 c13 -13 27
-38 31 -56 6 -31 5 -33 -12 -23 -41 24 -53 39 -53 70 0 37 4 38 34 9z m716
-22 c-11 -11 -26 -1 -33 24 -5 19 -4 19 18 2 13 -9 20 -21 15 -26z m1650 24
c0 -11 -4 -20 -9 -20 -5 0 -7 9 -4 20 3 11 7 20 9 20 2 0 4 -9 4 -20z m-1935
-37 c5 -19 2 -23 -14 -23 -18 0 -21 6 -21 37 0 32 2 35 14 23 8 -8 17 -25 21
-37z m1145 5 l-1 -43 -18 35 c-20 37 -19 50 5 50 10 0 14 -12 14 -42z m40 20
c0 -13 -5 -30 -10 -38 -7 -11 -10 -5 -10 23 0 20 5 37 10 37 6 0 10 -10 10
-22z m60 -13 c0 -13 6 -26 13 -28 9 -4 8 -8 -3 -16 -18 -13 -31 -13 -49 -2
-12 8 -12 12 -2 25 8 9 10 16 7 16 -4 0 -2 9 4 20 14 25 30 17 30 -15z m-1800
6 c0 -4 -6 -15 -13 -26 -13 -16 -14 -15 -9 13 2 18 8 29 13 26 5 -3 9 -9 9
-13z m424 -10 c16 -31 13 -43 -10 -34 -12 5 -21 63 -9 63 2 0 11 -13 19 -29z
m82 -29 c-12 -12 -18 8 -10 35 l8 28 4 -28 c2 -16 1 -31 -2 -35z m1154 21 c8
-21 16 -41 18 -45 2 -3 -22 -8 -52 -10 l-56 -3 0 48 0 47 38 0 c35 0 39 -3 52
-37z m634 22 c3 -8 1 -15 -4 -15 -6 0 -10 7 -10 15 0 8 2 15 4 15 2 0 6 -7 10
-15z m-2364 -58 l0 -29 -32 21 c-18 11 -33 25 -32 31 4 44 2 42 34 23 22 -13
30 -25 30 -46z m341 23 c-4 -20 -10 -30 -14 -23 -4 6 -2 23 4 37 16 34 19 29
10 -14z m1184 3 c-21 -51 -25 -52 -25 -10 0 31 9 44 33 46 4 1 0 -16 -8 -36z
m105 -3 c0 -46 -9 -53 -67 -48 l-39 3 18 43 c17 38 22 42 53 42 34 0 35 -1 35
-40z m-2009 7 c-10 -9 -11 -8 -5 6 3 10 9 15 12 12 3 -3 0 -11 -7 -18z m179 8
c0 -8 -4 -15 -10 -15 -5 0 -10 7 -10 15 0 8 5 15 10 15 6 0 10 -7 10 -15z m32
-32 c-10 -28 -10 -28 -11 12 -1 28 2 36 10 28 8 -8 8 -19 1 -40z m555 2 c-4
-11 -27 -14 -27 -2 0 54 0 53 15 32 9 -10 14 -24 12 -30z m263 23 c0 -19 -2
-20 -10 -8 -13 19 -13 30 0 30 6 0 10 -10 10 -22z m794 -19 c9 -23 16 -43 14
-44 -2 -2 -24 -6 -50 -10 l-48 -7 0 45 c0 35 4 47 18 50 41 11 50 6 66 -34z
m38 24 c2 -10 2 -28 -1 -40 -5 -20 -8 -18 -23 17 -16 38 -16 40 2 40 10 0 20
-8 22 -17z m-132 -32 c0 -46 0 -47 -63 -56 l-47 -7 19 42 c21 47 35 60 69 60
19 0 22 -5 22 -39z m730 29 c0 -5 -4 -10 -10 -10 -5 0 -10 5 -10 10 0 6 5 10
10 10 6 0 10 -4 10 -10z m-870 -47 l-1 -48 -18 40 c-12 28 -15 42 -7 47 21 15
26 7 26 -39z m50 40 c-1 -5 -9 -24 -20 -43 l-19 -35 -1 36 c0 20 3 39 7 42 9
9 33 9 33 0z m770 -2 c0 -9 -60 -24 -68 -17 -2 3 -1 9 3 15 7 13 65 15 65 2z
m-2280 -23 c0 -5 4 -7 9 -4 8 5 35 -43 28 -51 -3 -2 -17 2 -31 9 -19 8 -26 17
-23 30 3 10 1 18 -4 18 -5 0 -9 -4 -9 -10 0 -13 -11 -13 -30 0 -12 8 -12 12
-2 18 16 11 62 3 62 -10z m511 -5 c-12 -20 -14 -14 -5 12 4 9 9 14 11 11 3 -2
0 -13 -6 -23z m912 -10 c17 -45 11 -53 -45 -53 l-38 0 0 45 c0 44 0 45 34 45
30 0 36 -4 49 -37z m-1548 5 c-1 -13 -3 -31 -4 -40 0 -11 -9 -18 -21 -18 l-21
0 21 22 c22 24 27 43 8 32 -9 -5 -9 -2 1 9 17 22 19 21 16 -5z m492 -10 c-3
-7 -5 -2 -5 12 0 14 2 19 5 13 2 -7 2 -19 0 -25z m33 12 c0 -11 -4 -20 -10
-20 -5 0 -10 9 -10 20 0 11 5 20 10 20 6 0 10 -9 10 -20z m835 -17 c-21 -50
-25 -52 -25 -11 0 37 6 48 27 48 11 0 10 -7 -2 -37z m95 -3 c0 -33 -4 -41 -24
-46 -13 -3 -35 -4 -49 -2 l-26 3 19 43 c16 36 23 42 50 42 28 0 30 -2 30 -40z
m1630 21 c0 -11 -4 -22 -9 -25 -11 -7 -20 14 -13 32 7 19 22 14 22 -7z m-1802
-20 c6 -16 8 -32 5 -35 -4 -3 -1 -6 5 -6 7 0 12 -4 12 -10 0 -5 -22 -10 -49
-10 l-50 0 -4 38 -4 37 -1 -42 -2 -43 -46 0 c-25 0 -44 3 -42 8 2 4 10 24 17
44 13 33 19 37 55 41 95 8 93 9 104 -22z m42 -13 l-1 -43 -19 35 c-24 45 -24
50 0 50 17 0 20 -7 20 -42z m1670 32 c0 -5 -7 -10 -15 -10 -8 0 -15 5 -15 10
0 6 7 10 15 10 8 0 15 -4 15 -10z m44 -5 c3 -8 1 -15 -4 -15 -6 0 -10 7 -10
15 0 8 2 15 4 15 2 0 6 -7 10 -15z m-2791 -14 c3 -14 1 -18 -9 -14 -15 6 -18
16 -7 26 9 10 10 9 16 -12z m867 9 c0 -21 -29 -80 -39 -80 -9 0 -41 61 -41 76
0 2 9 4 20 4 16 0 20 -7 21 -37 2 -34 2 -35 6 -8 2 17 6 36 8 43 5 15 25 16
25 2z m1753 3 c-7 -2 -19 -2 -25 0 -7 3 -2 5 12 5 14 0 19 -2 13 -5z m-2826
-23 c1 -11 -2 -18 -8 -15 -11 7 -12 35 -1 35 4 0 8 -9 9 -20z m248 10 c3 -5
-1 -10 -10 -10 -9 0 -13 5 -10 10 3 6 8 10 10 10 2 0 7 -4 10 -10z m748 -34
c10 -21 16 -40 14 -42 -5 -6 -187 -17 -187 -11 0 18 32 76 45 81 35 13 45 6
47 -31 l1 -38 4 37 c3 24 10 38 21 41 28 8 36 2 55 -37z m1702 -126 c56 -347
97 -629 102 -700 3 -41 9 -77 13 -80 4 -3 14 -57 23 -121 13 -84 17 -188 17
-383 0 -236 -2 -269 -17 -284 -15 -16 -16 -15 -10 9 4 14 0 54 -8 90 l-15 64
6 -117 c5 -103 3 -118 -10 -118 -9 0 -16 7 -16 15 0 8 -4 15 -10 15 -5 0 -10
-15 -10 -34 0 -32 -14 -55 -26 -43 -3 3 -7 31 -9 63 -3 50 -3 53 4 19 8 -40 8
-39 10 17 0 31 -3 59 -8 62 -8 5 -14 -22 -28 -119 -6 -44 -22 -83 -23 -54 0
10 -8 15 -22 15 -20 -1 -22 3 -20 71 1 40 -1 72 -6 72 -33 -5 -42 2 -36 29 4
19 3 23 -4 13 -7 -10 -12 -3 -17 28 -4 23 -9 40 -12 37 -3 -2 0 -28 6 -58 6
-29 13 -69 16 -88 9 -61 -21 -9 -34 60 -7 33 -16 60 -21 60 -4 0 -7 109 -6
242 2 134 0 214 -4 178 -6 -64 -7 -63 -8 33 -1 53 2 97 6 97 15 0 23 291 8
301 -13 10 -11 218 2 231 15 15 15 28 2 28 -5 0 -13 -12 -16 -27 -4 -16 -9
-31 -11 -36 -8 -13 -9 -146 -1 -134 5 7 8 -2 9 -23 0 -19 3 -57 5 -85 3 -47 3
-49 -12 -30 -11 14 -14 34 -11 67 2 26 0 45 -4 42 -4 -2 -10 13 -12 33 -2 21
-3 14 -1 -14 1 -29 -2 -55 -7 -59 -5 -3 -7 -15 -4 -27 6 -21 6 -22 -9 -3 -19
23 -21 40 -4 30 13 -8 8 1 -34 63 -15 23 -28 48 -28 55 0 23 77 131 83 116 3
-7 6 -3 6 10 1 23 25 69 47 87 12 11 17 34 15 69 0 11 -4 16 -8 13 -3 -4 -17
9 -30 28 -22 33 -23 37 -10 92 l14 58 11 -55 11 -55 -6 77 c-6 96 3 159 23
151 8 -3 14 0 14 6 0 6 -6 11 -14 11 -22 0 -7 40 18 45 33 7 101 11 103 5 1
-3 14 -75 28 -160z m22 158 c4 -7 15 -47 23 -89 14 -67 14 -81 1 -110 l-14
-34 -13 90 c-7 50 -15 105 -18 123 -5 32 6 43 21 20z m-2667 -21 c9 -3 3 -6
-12 -6 -20 -1 -28 4 -28 15 0 12 4 14 13 7 6 -6 19 -13 27 -16z m2755 13 c7
-11 -26 -110 -37 -110 -5 0 -8 10 -8 23 0 12 -3 39 -6 60 -6 35 -5 37 19 37
14 0 29 -4 32 -10z m139 2 c2 -4 -4 -8 -14 -9 -11 -1 -22 2 -25 8 -4 5 3 9 14
9 11 0 22 -4 25 -8z m-2154 -44 c-1 -42 -1 -43 -15 -18 -19 33 -19 60 0 60 11
0 15 -11 15 -42z m34 20 c-14 -48 -23 -54 -24 -15 0 27 4 37 16 37 11 0 14 -6
8 -22z m1636 11 c0 -6 -16 -38 -36 -71 l-36 -59 -35 51 c-19 28 -32 58 -29 65
3 8 24 15 53 18 26 2 56 4 66 5 9 1 17 -3 17 -9z m61 -26 c-4 -34 -5 -35 -11
-13 -4 17 -8 21 -14 12 -4 -7 -4 -21 0 -30 8 -19 8 -28 -2 -97 -6 -43 -8 -46
-15 -25 -6 20 -7 16 -6 -18 0 -23 -2 -44 -5 -47 -6 -6 -68 86 -68 101 1 16 87
143 94 137 3 -4 6 -1 6 5 0 7 6 12 13 12 9 0 12 -11 8 -37z m329 9 c0 -15 -16
-52 -36 -82 -27 -42 -34 -49 -29 -27 7 34 52 137 59 137 4 0 6 -13 6 -28z
m-2182 -24 c-3 -42 -4 -43 -40 -46 l-37 -3 11 33 c15 44 27 58 50 58 16 0 19
-6 16 -42z m87 12 c23 -44 19 -50 -30 -50 l-45 0 0 40 c0 38 2 40 30 40 23 0
33 -7 45 -30z m2181 20 c11 0 14 -17 14 -73 l0 -73 -33 -12 c-18 -7 -38 -12
-43 -12 -5 0 -9 30 -9 68 0 73 17 117 42 108 8 -3 21 -6 29 -6z m119 0 c3 -5
-1 -10 -10 -10 -9 0 -13 5 -10 10 3 6 8 10 10 10 2 0 7 -4 10 -10z m-2536 -22
c26 -70 26 -70 -16 -66 -36 3 -38 5 -41 40 -3 31 0 37 20 41 13 2 24 5 26 6 1
0 6 -9 11 -21z m41 -15 c-1 -39 -10 -33 -24 15 -6 16 -3 22 8 22 12 0 16 -10
16 -37z m33 17 c-3 -11 -7 -20 -9 -20 -2 0 -4 9 -4 20 0 11 4 20 9 20 5 0 7
-9 4 -20z m1613 -26 c-9 -39 -12 -42 -17 -22 -13 45 -10 68 9 68 17 0 17 -4 8
-46z m87 33 c3 -7 -7 -32 -21 -56 -22 -38 -27 -41 -33 -25 -7 18 -8 18 -9 -1
-3 -39 -11 -70 -20 -79 -16 -16 -12 47 7 114 15 55 19 60 44 60 15 0 29 -6 32
-13z m-1852 -40 c7 -42 -5 -47 -32 -15 -29 32 -24 58 9 54 11 -2 19 -16 23
-39z m1700 31 c0 -10 2 -10 6 0 11 28 22 8 28 -54 6 -53 3 -77 -14 -131 -16
-48 -21 -87 -20 -151 1 -66 4 -81 11 -62 5 13 7 39 5 57 -3 18 -3 33 -1 33 11
0 54 -91 54 -115 0 -23 2 -25 15 -15 8 6 13 21 12 33 -2 25 25 35 105 36 l56
1 -36 -65 c-20 -35 -39 -65 -42 -65 -3 0 -20 25 -38 55 -31 51 -55 78 -32 36
13 -25 13 -34 0 -26 -18 11 -11 -9 19 -54 l30 -44 -26 -46 c-41 -72 -43 -71
-44 25 -2 96 -4 88 -14 -49 -4 -48 -11 -85 -16 -81 -5 3 -9 -3 -9 -13 0 -11
-7 -28 -16 -39 -15 -19 -15 -19 -10 1 2 11 10 47 16 80 6 33 16 83 22 111 6
28 8 58 6 65 -3 8 -9 -6 -13 -31 -9 -44 -9 -44 -16 -15 -5 22 -6 15 -4 -23 1
-29 -4 -83 -12 -120 -7 -36 -11 -72 -9 -79 3 -7 1 -13 -4 -13 -17 0 -12 -97 5
-104 12 -4 14 0 9 21 -7 26 -7 26 17 9 20 -14 24 -25 24 -73 1 -53 0 -55 -12
-27 -7 16 -12 35 -13 43 0 8 -2 12 -5 9 -7 -6 16 -99 27 -112 4 -5 0 -15 -9
-21 -20 -15 -29 -109 -14 -145 9 -20 10 -13 7 40 -3 36 -1 74 4 85 7 15 9 8
11 -30 1 -27 4 -40 6 -27 6 31 20 27 28 -9 4 -17 9 -28 12 -25 3 2 -3 28 -12
56 -16 49 -19 189 -4 204 3 3 57 5 120 5 63 0 126 0 141 0 24 0 26 -3 19 -22
-5 -12 -6 -45 -4 -73 4 -41 2 -52 -11 -57 -9 -4 -16 -2 -16 3 0 6 3 10 8 10 6
0 7 22 4 93 -1 15 -7 27 -12 27 -6 0 -9 -24 -8 -57 2 -47 -8 -88 -51 -215 -30
-87 -57 -158 -61 -158 -11 0 -21 65 -15 97 4 21 3 23 -3 9 -10 -23 -15 -16
-32 47 -7 26 -15 46 -17 43 -3 -2 4 -33 15 -68 14 -47 16 -71 9 -89 -8 -22
-12 -16 -37 56 -16 44 -29 75 -29 69 -1 -6 10 -44 24 -84 14 -40 25 -75 25
-77 0 -2 -20 -3 -45 -3 l-45 0 0 57 c0 83 -17 57 -19 -30 -1 -22 -5 -28 -18
-25 -19 4 -21 21 -9 78 5 24 4 30 -2 21 -8 -11 -11 -9 -14 10 -5 27 -7 -18 -7
-214 l-1 -137 -25 16 c-15 10 -25 12 -25 5 0 -22 -37 -10 -49 15 -10 23 -14
24 -28 13 -14 -12 -56 -17 -147 -20 -23 0 -36 17 -36 49 0 12 -6 22 -12 23 -7
0 -20 2 -28 4 -28 5 -55 7 -87 6 -27 -1 -33 -5 -33 -23 0 -20 -5 -23 -37 -23
-24 0 -38 5 -40 15 -3 8 -7 22 -10 30 -3 8 -7 20 -7 26 -2 18 -40 89 -53 97
-6 4 -10 17 -7 30 10 53 5 184 -10 218 -8 20 -13 39 -10 41 2 3 -2 10 -10 17
-11 9 -12 20 -5 47 11 37 4 78 -12 69 -12 -8 -12 138 0 151 6 5 7 41 2 84 l-7
75 -7 -85 c-4 -47 -10 -125 -13 -175 -5 -94 -16 -178 -29 -208 -6 -13 -4 -16
9 -11 9 3 16 12 16 20 0 23 18 16 22 -8 2 -15 9 -22 19 -20 9 1 20 -5 23 -14
5 -13 1 -15 -19 -12 -19 4 -25 1 -25 -13 0 -14 -7 -19 -30 -19 l-30 0 0 -94
c0 -85 -3 -98 -27 -135 -25 -39 -53 -54 -53 -30 0 6 -6 9 -12 6 -7 -2 -12 -10
-11 -16 2 -6 -10 -11 -27 -11 -17 0 -33 -7 -38 -17 -6 -9 -26 -18 -48 -20 -24
-2 -44 -11 -53 -23 -7 -11 -20 -20 -29 -20 -12 0 -13 7 -7 38 4 20 8 62 9 92
1 30 5 61 9 68 5 7 3 12 -4 12 -6 0 -9 8 -6 20 3 11 1 23 -5 26 -7 4 -6 9 1
13 16 10 -1 62 -54 172 -21 45 -31 56 -46 52 -11 -3 -25 0 -33 6 -22 19 -56
22 -49 5 3 -9 0 -12 -8 -9 -18 7 -79 -49 -79 -72 0 -10 10 -65 22 -122 17 -78
19 -106 10 -109 -7 -2 -12 -16 -12 -30 0 -15 -4 -33 -9 -41 -7 -11 -12 -6 -19
20 -9 31 -10 32 -11 8 -1 -23 -26 -47 -37 -36 -9 9 -4 109 8 157 10 39 12 64
5 84 -7 20 -6 30 2 35 7 5 3 15 -14 31 -22 20 -25 21 -25 6 0 -10 -6 -16 -12
-13 -7 2 -11 11 -10 18 2 8 0 11 -4 7 -4 -4 -13 0 -20 9 -11 15 -11 14 -7 -10
6 -30 -7 -35 -31 -11 -9 8 -16 11 -16 5 0 -6 -4 -10 -8 -9 -5 2 -22 -11 -40
-28 -37 -38 -77 -53 -62 -24 13 25 13 50 -1 28 -5 -10 -17 -18 -26 -18 -14 0
-15 12 -11 89 3 49 2 95 -3 103 -5 8 -9 -10 -10 -47 0 -33 -4 -80 -7 -104 -6
-40 -8 -43 -21 -27 -12 14 -12 22 -3 37 7 10 12 22 12 26 0 5 -5 0 -11 -11 -9
-15 -13 -16 -20 -5 -5 8 -6 -2 -2 -25 5 -29 3 -37 -6 -32 -7 5 -11 29 -10 64
1 32 -2 81 -6 110 l-8 52 29 0 c26 0 29 -4 31 -35 1 -19 -3 -35 -8 -35 -5 0
-8 -17 -8 -37 1 -27 3 -31 6 -14 4 19 7 21 14 10 6 -9 9 6 9 45 0 47 3 57 15
52 10 -3 15 1 16 12 1 18 4 68 13 177 10 118 17 227 21 290 2 33 6 85 9 115 3
30 8 82 11 115 3 33 10 64 15 69 9 9 4 9 360 36 146 11 294 23 330 27 36 3 68
6 71 5 11 -2 545 38 622 47 114 13 177 13 178 -1z m826 -20 c-3 -7 -5 -2 -5
12 0 14 2 19 5 13 2 -7 2 -19 0 -25z m20 -20 c-2 -13 -4 -5 -4 17 -1 22 1 32
4 23 2 -10 2 -28 0 -40z m-2684 7 c9 -20 17 -38 17 -40 0 -3 -22 -5 -50 -5
l-50 0 0 34 c0 30 4 35 28 39 15 2 30 5 33 6 3 0 13 -15 22 -34z m37 -2 l-1
-38 -14 25 c-19 33 -19 50 0 50 11 0 15 -11 15 -37z m2718 14 c2 -9 -7 -34
-20 -55 l-23 -37 -3 44 c-2 24 -1 50 2 58 8 19 40 12 44 -10z m-2848 -27 c0
-33 -3 -40 -20 -40 -11 0 -20 6 -21 13 0 10 -2 10 -6 0 -8 -20 -23 -15 -23 8
0 13 4 18 12 13 8 -5 9 -2 5 10 -10 24 0 36 29 36 21 0 24 -4 24 -40z m-160
-42 c0 -47 1 -48 31 -48 30 0 31 -2 26 -32 -3 -18 -9 -59 -13 -90 -3 -32 -9
-58 -13 -58 -5 0 -51 167 -66 237 -2 10 -6 25 -10 35 -4 11 -1 17 12 20 25 5
33 -9 33 -64z m70 62 c0 -15 -23 -60 -31 -60 -4 0 -10 11 -13 25 -4 14 -11 25
-17 25 -6 0 -7 5 -4 10 8 13 65 13 65 0z m2236 -65 c16 -30 16 -31 -25 -95
-23 -36 -48 -68 -56 -72 -24 -14 -43 17 -38 64 5 49 -13 43 -20 -7 l-4 -30 -2
31 c0 18 6 37 14 44 8 7 15 17 15 22 0 6 15 34 32 64 l33 54 17 -22 c9 -13 25
-37 34 -53z m-2366 55 c0 -5 -4 -10 -10 -10 -5 0 -10 5 -10 10 0 6 5 10 10 10
6 0 10 -4 10 -10z m392 -32 c-7 -7 -12 -8 -12 -2 0 14 12 26 19 19 2 -3 -1
-11 -7 -17z m2700 -18 c-2 -22 -6 -40 -8 -40 -2 0 -4 18 -4 40 0 22 3 40 8 40
4 0 6 -18 4 -40z m-3082 4 c10 -25 60 -217 60 -228 0 -8 -54 -8 -74 0 -13 5
-16 26 -16 130 0 123 9 153 30 98z m2848 -28 c-1 -51 -3 -56 -29 -65 -40 -14
-43 6 -8 68 16 28 31 51 33 51 3 0 4 -25 4 -54z m119 32 c-3 -8 -6 -5 -6 6 -1
11 2 17 5 13 3 -3 4 -12 1 -19z m28 -34 c1 -13 -3 -24 -7 -24 -4 0 -8 14 -8
32 0 36 15 29 15 -8z m65 -113 c0 -133 -2 -149 -17 -153 -38 -10 -41 -1 -36
125 5 99 9 127 25 150 11 15 21 27 24 27 2 0 4 -67 4 -149z m-2545 99 c-19
-21 -35 -18 -35 6 0 9 10 14 27 14 25 0 26 -1 8 -20z m-78 -5 c8 -23 2 -23
-37 -4 l-35 18 33 1 c21 0 35 -6 39 -15z m107 -107 c-3 -67 -10 -132 -15 -145
-5 -14 -6 -35 -3 -47 3 -13 -2 -41 -12 -62 -17 -40 -20 -37 -26 29 -4 40 6 50
17 16 4 -11 9 -19 11 -16 2 2 -4 24 -14 48 -12 29 -17 61 -15 94 9 119 11 140
13 143 1 1 3 8 4 15 0 6 8 12 16 12 8 0 16 6 16 13 2 18 4 22 8 22 3 0 2 -55
0 -122z m-274 102 c8 6 24 9 35 9 20 -1 17 -2 -23 -15 -7 -2 -10 -8 -7 -14 4
-7 12 -7 25 0 18 10 18 8 6 -22 -8 -18 -20 -59 -27 -91 -11 -50 -29 -87 -29
-59 0 6 -7 12 -15 16 -12 4 -13 2 -3 -14 7 -10 10 -21 7 -24 -2 -3 -34 2 -70
10 l-65 15 10 74 c5 41 12 75 15 75 3 0 23 -27 45 -60 21 -33 40 -60 43 -60 3
0 -1 10 -9 23 -38 57 -78 125 -78 131 0 4 12 6 27 4 21 -2 29 -10 35 -37 5
-18 11 -31 13 -29 3 2 1 18 -4 36 -8 27 -7 31 12 34 12 2 27 1 32 -3 6 -5 17
-4 25 1z m166 -37 c32 -16 32 -17 33 -97 0 -62 -2 -77 -10 -63 -6 10 -8 35 -5
55 5 31 4 33 -4 13 -13 -29 -10 -32 -54 57 -41 81 -44 78 40 35z m2014 -64 c0
-4 -7 -10 -16 -13 -23 -9 -124 -7 -124 2 0 4 16 31 36 61 l36 53 34 -48 c19
-26 34 -51 34 -55z m-2080 -334 c44 -584 44 -573 31 -632 -12 -51 -14 -53 -30
-39 -22 20 -60 21 -67 1 -15 -38 -109 -22 -161 27 -17 17 -36 27 -42 24 -6 -4
-11 -4 -11 1 -1 4 -3 43 -6 86 -5 74 -1 90 75 355 44 152 96 336 116 407 61
218 58 214 67 120 4 -44 17 -201 28 -350z m1817 390 c-3 -21 -2 -33 4 -30 5 4
9 -3 9 -14 0 -12 5 -21 11 -21 5 0 7 -4 4 -10 -3 -5 -17 -10 -31 -10 -22 0
-23 2 -14 20 6 11 8 24 6 29 -7 10 4 71 12 71 2 0 2 -16 -1 -35z m890 13 c-3
-8 -6 -5 -6 6 -1 11 2 17 5 13 3 -3 4 -12 1 -19z m-307 -23 c0 -5 -5 -3 -10 5
-5 8 -10 20 -10 25 0 6 5 3 10 -5 5 -8 10 -19 10 -25z m149 5 c-13 -35 -49
-43 -49 -10 0 19 24 39 47 40 9 0 9 -8 2 -30z m-2519 -58 l32 -62 -23 -65
c-12 -36 -26 -62 -30 -58 -4 5 -10 64 -14 133 -4 69 -5 123 -2 120 2 -3 19
-33 37 -68z m2531 41 c-12 -20 -14 -14 -5 12 4 9 9 14 11 11 3 -2 0 -13 -6
-23z m56 5 c-3 -8 -6 -5 -6 6 -1 11 2 17 5 13 3 -3 4 -12 1 -19z m-137 -3 c0
-10 -10 -15 -32 -14 l-33 1 30 13 c17 8 31 14 33 15 1 0 2 -7 2 -15z m-38
-191 c23 -122 23 -134 10 -192 -9 -34 -17 -61 -19 -59 -5 6 -22 100 -44 250
-17 115 -18 141 -7 148 24 15 35 -14 60 -147z m38 108 c0 -27 -6 -56 -13 -67
-13 -16 -15 -14 -21 26 -4 24 -9 54 -13 67 -4 19 -1 22 21 22 24 0 26 -3 26
-48z m36 26 l-6 -23 11 23 c7 12 16 22 22 22 12 0 -14 -41 -28 -43 -5 -1 -11
8 -13 21 -2 12 2 22 8 22 7 0 9 -9 6 -22z m63 -47 c-2 -38 -7 -67 -11 -65 -4
3 -8 0 -8 -5 0 -6 -7 -11 -15 -11 -8 0 -15 5 -15 11 0 25 35 139 43 139 4 0 7
-31 6 -69z m-509 34 c0 -10 -74 -35 -104 -35 -38 0 -69 16 -46 24 13 5 32 7
128 14 12 1 22 0 22 -3z m547 -62 c-2 -16 -4 -5 -4 22 0 28 2 40 4 28 2 -13 2
-35 0 -50z m-717 53 c0 -11 -19 -15 -25 -6 -3 5 1 10 9 10 9 0 16 -2 16 -4z
m-66 -19 c11 -8 17 -19 15 -26 -3 -8 -13 -3 -28 13 -26 28 -17 35 13 13z m266
-7 c0 -11 -7 -20 -15 -20 -13 0 -14 4 -5 20 6 11 13 20 15 20 3 0 5 -9 5 -20z
m45 -29 c-11 -10 -35 11 -35 30 0 21 0 21 19 -2 11 -13 18 -26 16 -28z m-81
25 c-3 -9 -12 -12 -22 -9 -15 6 -9 11 25 22 1 1 0 -5 -3 -13z m-184 -6 c0 -5
-5 -10 -11 -10 -5 0 -7 5 -4 10 3 6 8 10 11 10 2 0 4 -4 4 -10z m60 -15 c-10
-12 -60 -27 -60 -18 0 22 23 40 45 35 19 -3 23 -8 15 -17z m576 -21 c-15 -39
-15 -39 -15 -8 -1 16 4 35 11 42 18 18 19 9 4 -34z m81 14 c-3 -8 -6 -5 -6 6
-1 11 2 17 5 13 3 -3 4 -12 1 -19z m-2906 2 c5 0 9 -4 9 -9 0 -12 -38 -2 -47
12 -4 7 0 8 11 4 10 -4 22 -7 27 -7z m392 -17 c17 -33 28 -106 18 -121 -8 -12
-91 -27 -91 -16 0 10 54 164 57 164 1 0 9 -12 16 -27z m1947 17 c20 -6 15 -8
-25 -9 -36 0 -46 2 -35 9 17 11 25 11 60 0z m-2366 -22 c49 -23 49 -22 26
-138 -5 -25 -12 -78 -16 -117 -6 -72 -19 -95 -27 -50 -2 12 -2 0 0 -26 5 -45
4 -48 -13 -38 -11 5 -27 12 -38 15 -11 4 -16 12 -12 22 3 9 6 75 7 147 1 88 4
124 10 107 6 -17 7 -9 3 27 -5 46 -1 73 11 73 3 0 24 -10 49 -22z m151 -1 c11
-3 -4 -5 -32 -6 -40 -1 -53 3 -53 13 0 11 7 13 33 6 17 -5 41 -11 52 -13z
m2335 -4 c0 -3 -11 -21 -25 -39 -14 -18 -25 -35 -25 -38 0 -4 -21 -38 -47 -77
l-47 -70 -18 23 c-31 41 -30 54 14 127 36 59 47 71 69 71 19 0 29 -7 34 -22 8
-22 8 -22 12 5 2 15 11 27 19 27 8 0 14 -3 14 -7z m-2274 -29 c-4 -9 -11 -36
-17 -60 -6 -24 -15 -44 -20 -44 -5 0 -8 -8 -6 -17 3 -24 -45 -193 -55 -193 -5
0 -8 -6 -8 -14 0 -13 -77 -32 -87 -22 -5 5 34 307 43 338 4 13 19 18 62 21 31
2 65 4 76 5 13 1 16 -3 12 -14z m2814 -21 c0 -10 -9 -13 -27 -11 -31 4 -42 25
-16 30 26 6 43 -2 43 -19z m-213 -15 c-3 -8 -6 -5 -6 6 -1 11 2 17 5 13 3 -3
4 -12 1 -19z m56 6 c3 -4 -1 -24 -10 -46 -8 -21 -13 -41 -11 -44 3 -2 13 16
22 41 31 79 44 59 45 -69 2 -106 0 -114 -19 -119 -19 -5 -20 0 -22 66 l-2 72
-3 -72 c-2 -40 -8 -73 -13 -73 -18 0 -24 103 -13 208 4 39 12 50 26 36z m64
-26 c-3 -8 -6 -5 -6 6 -1 11 2 17 5 13 3 -3 4 -12 1 -19z m-678 -24 c12 -20
20 -38 18 -41 -5 -4 -47 60 -47 71 0 14 9 4 29 -30z m762 26 c26 -14 24 -26
-15 -111 l-34 -74 -1 98 c-1 104 3 112 50 87z m-67 -166 c2 -6 -2 -29 -9 -50
-13 -37 -14 -33 -13 76 0 108 1 111 9 51 4 -35 10 -70 13 -77z m-2504 89 c0
-8 -4 -11 -10 -8 -12 7 -13 -17 -11 -202 l2 -133 -27 0 c-26 0 -26 2 -21 42 3
24 2 36 -3 29 -9 -16 -25 190 -16 214 3 8 0 26 -6 40 -15 34 -6 40 34 20 25
-12 28 -12 15 -1 -18 14 -18 14 0 18 26 6 43 -2 43 -19z m31 -158 c-12 -139
-28 -228 -31 -165 -7 144 -6 212 0 195 6 -13 9 2 9 47 1 43 5 68 14 71 6 2 14
3 16 1 2 -2 -2 -69 -8 -149z m1845 103 c8 -16 12 -28 9 -28 -7 0 -45 63 -45
75 0 11 13 -6 36 -47z m714 -108 l0 -160 -41 0 -40 0 4 88 c5 99 7 110 28 143
8 13 21 39 28 57 8 17 15 32 17 32 2 0 4 -72 4 -160z m-735 97 l17 -33 -52
-82 c-29 -45 -58 -82 -66 -82 -20 0 -18 83 3 123 28 55 63 107 72 107 4 0 16
-15 26 -33z m-1858 -9 c-3 -7 -5 -2 -5 12 0 14 2 19 5 13 2 -7 2 -19 0 -25z
m2371 -28 c2 -48 -1 -60 -13 -60 -11 0 -14 10 -11 43 4 35 14 77 20 77 0 0 2
-27 4 -60z m-438 -36 c18 -25 30 -47 27 -50 -2 -3 -12 7 -21 21 -9 14 -23 36
-32 50 -29 44 -6 27 26 -21z m5 -49 l46 -70 -92 -3 c-50 -1 -94 0 -97 3 -3 3
16 37 43 75 26 39 49 69 51 67 2 -1 24 -34 49 -72z m530 25 c-3 -5 -13 -10
-21 -10 -8 0 -12 5 -9 10 3 6 13 10 21 10 8 0 12 -4 9 -10z m-740 -62 c-2 -25
-8 -34 -24 -36 -21 -3 -21 -2 -10 20 12 24 29 48 34 48 1 0 2 -15 0 -32z m644
-80 l-1 -113 -13 75 c-19 105 -19 150 0 150 13 0 15 -19 14 -112z m47 -38 c6
-88 -3 -213 -14 -206 -4 2 -8 84 -9 183 -2 185 11 198 23 23z m41 109 c-9 -66
-27 -73 -27 -11 0 41 3 52 16 52 14 0 16 -8 11 -41z m-2919 -13 c6 -49 -7 -94
-28 -101 -11 -4 -17 -11 -14 -17 4 -6 3 -8 -3 -5 -14 9 -24 89 -16 127 5 26
10 31 32 28 20 -2 27 -9 29 -32z m2949 12 c-3 -8 -6 -5 -6 6 -1 11 2 17 5 13
3 -3 4 -12 1 -19z m-2832 -15 c-4 -10 -18 -62 -32 -115 -15 -54 -30 -98 -34
-98 -17 0 -39 104 -33 155 9 75 9 75 60 75 40 0 45 -2 39 -17z m2270 -34 c-4
-5 -27 -9 -53 -9 -26 0 -42 4 -35 8 17 11 94 12 88 1z m-195 -9 c0 -5 -4 -10
-9 -10 -6 0 -13 5 -16 10 -3 6 1 10 9 10 9 0 16 -4 16 -10z m250 0 c0 -5 -10
-10 -22 -9 -22 0 -22 1 -3 9 11 5 21 9 23 9 1 1 2 -3 2 -9z m-160 -10 c0 -5
-16 -10 -36 -10 -21 0 -33 4 -29 10 3 6 19 10 36 10 16 0 29 -4 29 -10z m769
-112 c1 -21 -3 -38 -7 -38 -6 0 -33 -137 -48 -245 -7 -54 9 -2 31 100 l22 100
6 -120 c8 -168 9 -167 -26 -163 -55 6 -65 71 -58 375 l1 63 30 -6 c21 -5 30
-3 31 7 2 26 17 -36 18 -73z m-132 35 c-3 -10 -5 -4 -5 12 0 17 2 24 5 18 2
-7 2 -21 0 -30z m30 -55 c-2 -13 -4 -5 -4 17 -1 22 1 32 4 23 2 -10 2 -28 0
-40z m-1507 -3 l-8 -40 -1 36 c0 20 2 39 6 42 11 11 11 4 3 -38z m1457 -27
c-3 -8 -6 -5 -6 6 -1 11 2 17 5 13 3 -3 4 -12 1 -19z m21 -128 c-1 -51 -5 -70
-15 -70 -14 0 -18 74 -6 144 5 35 7 37 14 18 5 -13 8 -54 7 -92z m29 53 c-3
-10 -5 -2 -5 17 0 19 2 27 5 18 2 -10 2 -26 0 -35z m-501 -110 c-3 -71 -5
-130 -5 -133 -1 -7 -81 -7 -81 0 -1 9 85 260 88 260 2 0 1 -57 -2 -127z m21
35 c-2 -18 -4 -4 -4 32 0 36 2 50 4 33 2 -18 2 -48 0 -65z m-2430 60 c-3 -8
-6 -5 -6 6 -1 11 2 17 5 13 3 -3 4 -12 1 -19z m-14 -51 c-4 -20 -8 -25 -14
-16 -4 7 -3 21 3 32 13 25 17 18 11 -16z m-106 -159 c-2 -35 -3 -9 -3 57 0 66
1 94 3 63 2 -32 2 -86 0 -120z m2960 110 c-3 -8 -6 -5 -6 6 -1 11 2 17 5 13 3
-3 4 -12 1 -19z m-2920 -10 c-3 -8 -6 -5 -6 6 -1 11 2 17 5 13 3 -3 4 -12 1
-19z m47 -12 c-3 -15 -8 -25 -11 -23 -2 3 -1 17 3 31 3 15 8 25 11 23 2 -3 1
-17 -3 -31z m2485 -94 c1 -31 -3 -42 -11 -39 -13 4 -19 130 -8 152 6 13 19
-59 19 -113z m-2368 56 c12 -18 16 -27 9 -20 -8 6 -17 12 -22 12 -4 0 -6 -6
-4 -12 1 -7 1 -10 -1 -5 -3 4 -11 7 -19 7 -9 0 -12 -4 -9 -10 3 -5 1 -10 -4
-10 -14 0 -14 17 -1 25 6 3 10 15 10 26 0 28 16 23 41 -13z m2798 -130 c-1
-173 -13 -154 -25 40 -6 100 -5 112 9 112 15 0 17 -17 16 -152z m-2972 110
c-3 -7 -5 -2 -5 12 0 14 2 19 5 13 2 -7 2 -19 0 -25z m2369 -45 c-11 -11 -19
6 -11 24 8 17 8 17 12 0 3 -10 2 -21 -1 -24z m703 -321 c-1 -40 -5 -75 -9 -77
-4 -2 -12 45 -19 105 -6 61 -16 120 -21 132 -10 25 -9 17 9 -132 5 -41 9 -103
9 -137 l0 -62 -32 2 c-17 1 -36 7 -42 13 -7 6 -14 61 -17 130 l-6 119 18 -105
c10 -58 16 -111 14 -117 -3 -8 3 -13 15 -13 19 0 19 6 15 170 -3 100 -1 170 5
170 5 0 7 37 6 83 l-4 82 30 -145 c20 -94 30 -170 29 -218z m-2899 327 c0 -14
-29 -17 -40 -4 -8 10 -5 13 15 11 14 0 25 -4 25 -7z m50 -2 c0 -5 10 -7 23 -5
35 7 47 -15 46 -84 0 -35 -3 -56 -6 -48 -3 8 -14 22 -24 30 -10 8 -20 31 -22
50 -2 23 -8 34 -18 33 -8 -2 -19 5 -25 15 -10 15 -8 18 7 18 11 0 19 -4 19 -9z
m2698 -237 c0 -120 -3 -161 -9 -130 -11 62 -9 398 2 345 4 -22 8 -119 7 -215z
m192 103 c0 -58 -3 -103 -7 -100 -4 4 -5 32 -4 62 1 34 -2 55 -8 55 -6 0 -11
-17 -12 -37 -1 -34 -2 -32 -15 22 -21 94 -19 105 16 105 l30 0 0 -107z m-3143
30 c-3 -10 -5 -2 -5 17 0 19 2 27 5 18 2 -10 2 -26 0 -35z m2253 26 c0 -5 -4
-9 -10 -9 -5 0 -10 7 -10 16 0 8 5 12 10 9 6 -3 10 -10 10 -16z m111 -28 c6
-175 -18 -193 -60 -45 -11 38 -20 62 -20 52 -1 -9 8 -45 19 -80 11 -34 20 -64
20 -65 0 -2 -8 -3 -19 -3 -33 0 -48 89 -27 158 5 14 14 17 46 14 35 -4 40 -7
41 -31z m-131 3 c0 -8 6 -14 13 -14 8 0 9 -2 1 -8 -6 -4 -14 -23 -18 -42 l-6
-35 14 30 14 30 1 -48 c1 -31 -5 -54 -14 -63 -8 -9 -15 -14 -16 -12 0 2 -3 45
-6 97 -3 65 -1 91 6 86 6 -3 11 -13 11 -21z m180 -64 c0 -72 -3 -90 -14 -90
-17 0 -23 53 -18 133 3 32 8 47 18 47 11 0 14 -19 14 -90z m83 84 c13 -5 13
-13 -4 -62 -11 -31 -18 -60 -16 -65 2 -6 11 18 22 52 23 78 35 86 34 24 -1
-67 -21 -117 -47 -121 -17 -3 -21 1 -16 15 5 17 5 17 -6 1 -6 -10 -18 -18 -25
-18 -12 0 -15 18 -15 90 l0 90 29 0 c16 0 36 -3 44 -6z m-1036 -36 c-3 -7 -5
-2 -5 12 0 14 2 19 5 13 2 -7 2 -19 0 -25z m1110 -61 c3 -74 1 -87 -13 -87
-13 0 -15 10 -11 58 3 31 8 71 11 87 5 23 4 26 -3 10 -9 -19 -10 -19 -10 3 -1
15 4 22 11 20 9 -3 14 -33 15 -91z m-942 73 c4 -6 -6 -10 -22 -9 -25 0 -26 1
-8 9 11 5 21 9 22 9 1 1 5 -3 8 -9z m-1610 -29 c-3 -12 -11 -19 -16 -16 -5 4
-3 14 3 25 15 24 22 19 13 -9z m1359 3 c9 -24 2 -26 -12 -4 -7 11 -8 20 -3 20
5 0 12 -7 15 -16z m1643 -6 c-3 -8 -6 -5 -6 6 -1 11 2 17 5 13 3 -3 4 -12 1
-19z m-1382 2 c3 -6 -1 -7 -9 -4 -18 7 -21 14 -7 14 6 0 13 -4 16 -10z m-298
-47 c-3 -10 -5 -4 -5 12 0 17 2 24 5 18 2 -7 2 -21 0 -30z m-1340 -15 c-3 -8
-6 -5 -6 6 -1 11 2 17 5 13 3 -3 4 -12 1 -19z m1350 -40 c0 -18 3 -42 8 -52 6
-14 5 -17 -3 -12 -7 4 -12 1 -12 -9 0 -9 -5 -13 -10 -10 -14 9 0 115 14 115 2
0 3 -15 3 -32z m1183 -3 c0 -8 -4 -15 -10 -15 -5 0 -7 7 -4 15 4 8 8 15 10 15
2 0 4 -7 4 -15z m-2476 -54 c13 -71 18 -173 7 -167 -6 4 -12 24 -12 44 -2 31
-3 32 -6 9 -2 -15 -9 -25 -14 -22 -5 3 -6 -2 -2 -11 4 -12 3 -15 -5 -10 -7 4
-12 2 -12 -4 0 -7 -5 -6 -13 2 -8 7 -12 20 -9 30 3 14 0 17 -12 12 -9 -3 -14
-10 -11 -14 3 -4 -2 -13 -10 -20 -12 -10 -15 -9 -15 4 0 10 -4 15 -9 11 -5 -3
-12 3 -14 12 -2 10 -3 5 -1 -10 3 -23 0 -28 -14 -25 -9 2 -16 9 -15 16 2 6 -2
23 -7 37 -7 20 -6 25 5 25 26 0 16 19 -17 35 l-33 15 39 -4 38 -4 -6 37 c-5
36 -5 37 26 39 18 2 33 4 35 6 2 2 21 -2 43 -7 30 -9 40 -17 44 -36z m43 7
c-3 -7 -5 -2 -5 12 0 14 2 19 5 13 2 -7 2 -19 0 -25z m1750 -15 c-3 -10 -5 -4
-5 12 0 17 2 24 5 18 2 -7 2 -21 0 -30z m626 -39 c-17 -49 -33 -50 -33 0 0 35
15 57 35 49 11 -4 10 -13 -2 -49z m-676 14 c-3 -7 -5 -2 -5 12 0 14 2 19 5 13
2 -7 2 -19 0 -25z m636 12 c-3 -11 -7 -20 -9 -20 -2 0 -4 9 -4 20 0 11 4 20 9
20 5 0 7 -9 4 -20z m97 -25 c0 -37 -3 -45 -19 -45 -12 0 -20 9 -23 23 -6 32 8
67 27 67 11 0 15 -11 15 -45z m79 -24 c12 -58 10 -68 -11 -54 -8 5 -13 29 -13
65 0 67 9 64 24 -11z m528 47 c-3 -8 -6 -5 -6 6 -1 11 2 17 5 13 3 -3 4 -12 1
-19z m-3047 -14 c0 -8 -5 -12 -10 -9 -6 4 -8 11 -5 16 9 14 15 11 15 -7z m40
-10 c0 -16 -16 -19 -25 -4 -8 13 4 32 16 25 5 -4 9 -13 9 -21z m169 -6 c0 -7
-4 -22 -9 -33 -7 -18 -8 -18 -14 -2 -15 44 -15 47 4 47 11 0 20 -6 19 -12z
m1038 -10 c-3 -8 -6 -5 -6 6 -1 11 2 17 5 13 3 -3 4 -12 1 -19z m-900 -20 c-3
-7 -5 -2 -5 12 0 14 2 19 5 13 2 -7 2 -19 0 -25z m-252 4 c-3 -3 -11 0 -18 7
-9 10 -8 11 6 5 10 -3 15 -9 12 -12z m1732 -19 c-3 -10 -5 -4 -5 12 0 17 2 24
5 18 2 -7 2 -21 0 -30z m750 -10 c-3 -10 -5 -2 -5 17 0 19 2 27 5 18 2 -10 2
-26 0 -35z m-1337 13 c0 -8 -4 -18 -10 -21 -5 -3 -10 3 -10 14 0 12 5 21 10
21 6 0 10 -6 10 -14z m617 -8 c-3 -8 -6 -5 -6 6 -1 11 2 17 5 13 3 -3 4 -12 1
-19z m-772 2 c-3 -5 -12 -10 -18 -10 -7 0 -6 4 3 10 19 12 23 12 15 0z m188
-20 c-6 -22 -18 -26 -28 -10 -8 13 3 30 20 30 8 0 11 -7 8 -20z m357 16 c0 -2
-7 -6 -15 -10 -8 -3 -15 -1 -15 4 0 6 7 10 15 10 8 0 15 -2 15 -4z m805 -16
c-3 -5 -12 -7 -20 -3 -21 7 -19 13 6 13 11 0 18 -4 14 -10z m-2068 -42 c-3 -7
-5 -2 -5 12 0 14 2 19 5 13 2 -7 2 -19 0 -25z m613 2 c0 -20 -2 -22 -10 -10
-6 9 -13 11 -17 5 -5 -5 -14 -11 -22 -13 -12 -3 -12 0 -1 12 7 9 10 16 7 16
-3 0 -12 3 -21 6 -11 4 -16 0 -16 -12 0 -9 -3 -15 -6 -11 -4 3 -4 13 -1 21 4
9 19 14 46 13 37 -2 41 -5 41 -27z m713 15 c-3 -9 -8 -14 -10 -11 -3 3 -2 9 2
15 9 16 15 13 8 -4z m-66 -27 c-3 -8 -6 -5 -6 6 -1 11 2 17 5 13 3 -3 4 -12 1
-19z m-1857 2 c0 -5 -5 -10 -11 -10 -5 0 -7 5 -4 10 3 6 8 10 11 10 2 0 4 -4
4 -10z m378 -5 c3 -3 -7 -5 -21 -5 -15 0 -27 4 -27 9 0 10 38 7 48 -4z m159
-1 c-10 -10 -147 -14 -147 -4 0 5 15 6 33 4 17 -3 50 -1 72 4 40 9 54 7 42 -4z
m343 6 c0 -5 -2 -10 -4 -10 -3 0 -8 5 -11 10 -3 6 -1 10 4 10 6 0 11 -4 11
-10z m354 -5 c3 -8 1 -15 -4 -15 -6 0 -10 7 -10 15 0 8 2 15 4 15 2 0 6 -7 10
-15z m54 -2 c6 -19 -35 -16 -42 3 -4 11 0 15 16 12 12 -2 23 -9 26 -15z m-998
-3 c0 -5 -2 -10 -4 -10 -3 0 -8 5 -11 10 -3 6 -1 10 4 10 6 0 11 -4 11 -10z
m601 -13 c-10 -9 -11 -8 -5 6 3 10 9 15 12 12 3 -3 0 -11 -7 -18z m2225 -11
c28 -13 54 -31 57 -40 4 -9 4 -16 1 -16 -16 0 -134 61 -134 69 0 17 20 13 76
-13z m-2931 4 c-19 -8 -19 -9 -1 -9 15 -1 16 -3 6 -16 -11 -13 -15 -13 -21 -3
-6 8 -9 9 -9 2 0 -21 -34 -26 -47 -8 -9 13 -13 14 -13 4 0 -9 -6 -8 -19 6 -24
25 -12 31 63 32 42 1 55 -2 41 -8z m2595 0 c0 -5 -5 -10 -11 -10 -5 0 -7 5 -4
10 3 6 8 10 11 10 2 0 4 -4 4 -10z m-930 -10 c0 -5 -4 -10 -10 -10 -5 0 -10 5
-10 10 0 6 5 10 10 10 6 0 10 -4 10 -10z m-1537 -7 c-7 -2 -21 -2 -30 0 -10 3
-4 5 12 5 17 0 24 -2 18 -5z m1777 -13 c0 -5 -2 -10 -4 -10 -3 0 -8 5 -11 10
-3 6 -1 10 4 10 6 0 11 -4 11 -10z m974 -22 l12 23 60 -31 c64 -32 82 -37 66
-17 -6 7 -7 18 -3 26 7 11 10 9 14 -5 8 -32 8 -178 -1 -191 -6 -9 -29 -11 -87
-5 l-80 7 -1 115 c-1 63 1 102 3 85 5 -29 5 -29 17 -7z m-914 2 c0 -5 -7 -7
-15 -4 -8 4 -15 8 -15 10 0 2 7 4 15 4 8 0 15 -4 15 -10z m496 -138 c-13 -13
-16 9 -9 64 l8 59 3 -59 c2 -32 1 -61 -2 -64z m64 53 c0 -42 -3 -55 -15 -55
-12 0 -15 13 -15 55 0 42 3 55 15 55 12 0 15 -13 15 -55z m30 -7 c0 -40 -3
-59 -10 -52 -9 9 -3 114 6 114 2 0 4 -28 4 -62z m584 47 c-4 -8 -18 -15 -32
-15 -29 0 -20 15 13 23 11 3 21 5 22 6 1 0 0 -6 -3 -14z m6 -50 c0 -8 -4 -15
-10 -15 -5 0 -9 -5 -7 -11 1 -6 -8 -18 -20 -26 -22 -15 -23 -15 -23 19 0 41 5
48 37 48 14 0 23 -6 23 -15z m-81 -105 c4 0 12 5 18 11 16 16 33 2 33 -25 0
-22 -29 -71 -30 -50 0 5 5 15 12 22 9 9 8 12 -6 12 -9 0 -14 5 -11 10 3 6 -3
10 -14 10 -19 0 -21 6 -19 48 l1 47 4 -42 c2 -24 7 -43 12 -43z m1 -40 c0 -5
-9 -10 -19 -10 -11 0 -22 -6 -24 -12 -4 -10 -8 -9 -16 2 -9 12 -11 11 -11 -8
0 -19 -2 -21 -14 -10 -18 17 -12 26 27 37 44 13 57 13 57 1z m-126 -30 c-12
-12 -84 -20 -84 -10 0 14 15 20 54 20 27 0 37 -3 30 -10z m-101 -27 c-7 -2
-19 -2 -25 0 -7 3 -2 5 12 5 14 0 19 -2 13 -5z"/>
<path d="M1651 2894 c0 -11 3 -14 6 -6 3 7 2 16 -1 19 -3 4 -6 -2 -5 -13z"/>
<path d="M1511 2864 c0 -11 3 -14 6 -6 3 7 2 16 -1 19 -3 4 -6 -2 -5 -13z"/>
<path d="M2450 2825 c0 -8 4 -15 8 -15 5 0 6 -28 4 -62 -2 -35 -1 -60 3 -55
10 8 14 91 7 125 -5 25 -22 30 -22 7z"/>
<path d="M2471 2624 c0 -11 3 -14 6 -6 3 7 2 16 -1 19 -3 4 -6 -2 -5 -13z"/>
<path d="M2303 2815 c0 -22 2 -30 4 -17 2 12 2 30 0 40 -3 9 -5 -1 -4 -23z"/>
<path d="M2250 2790 c0 -27 4 -50 9 -50 5 0 9 23 9 50 1 28 -3 50 -9 50 -5 0
-9 -22 -9 -50z"/>
<path d="M2316 2778 c-8 -30 -8 -123 0 -115 5 5 13 137 8 137 -1 0 -4 -10 -8
-22z"/>
<path d="M2241 2714 c0 -11 3 -14 6 -6 3 7 2 16 -1 19 -3 4 -6 -2 -5 -13z"/>
<path d="M2262 2680 c0 -14 2 -19 5 -12 2 6 2 18 0 25 -3 6 -5 1 -5 -13z"/>
<path d="M2273 2615 c0 -22 2 -30 4 -17 2 12 2 30 0 40 -3 9 -5 -1 -4 -23z"/>
<path d="M2577 2720 c-3 -11 -1 -23 4 -26 5 -3 9 6 9 20 0 31 -6 34 -13 6z"/>
<path d="M2150 2784 c0 -8 5 -12 10 -9 6 4 8 11 5 16 -9 14 -15 11 -15 -7z"/>
<path d="M1871 2744 c0 -11 3 -14 6 -6 3 7 2 16 -1 19 -3 4 -6 -2 -5 -13z"/>
<path d="M1942 2675 c0 -16 2 -22 5 -12 2 9 2 23 0 30 -3 6 -5 -1 -5 -18z"/>
<path d="M1731 2734 c0 -11 3 -14 6 -6 3 7 2 16 -1 19 -3 4 -6 -2 -5 -13z"/>
<path d="M1681 2614 c0 -11 3 -14 6 -6 3 7 2 16 -1 19 -3 4 -6 -2 -5 -13z"/>
<path d="M2031 2744 c0 -11 3 -14 6 -6 3 7 2 16 -1 19 -3 4 -6 -2 -5 -13z"/>
<path d="M1971 2604 c0 -11 3 -14 6 -6 3 7 2 16 -1 19 -3 4 -6 -2 -5 -13z"/>
<path d="M1591 2544 c0 -11 3 -14 6 -6 3 7 2 16 -1 19 -3 4 -6 -2 -5 -13z"/>
<path d="M1136 2630 c8 -89 23 -110 17 -24 -3 38 -9 73 -14 79 -6 5 -7 -17 -3
-55z"/>
<path d="M2420 2620 c0 -5 5 -10 10 -10 6 0 10 5 10 10 0 6 -4 10 -10 10 -5 0
-10 -4 -10 -10z"/>
<path d="M884 2645 c3 -9 -1 -35 -9 -58 -8 -23 -14 -51 -14 -62 1 -12 6 -5 13
17 6 20 14 40 19 44 11 12 8 74 -4 74 -6 0 -8 -7 -5 -15z"/>
<path d="M2032 2565 c0 -16 2 -22 5 -12 2 9 2 23 0 30 -3 6 -5 -1 -5 -18z"/>
<path d="M2774 2165 c-3 -8 -4 -20 -2 -27 3 -7 7 -1 10 15 6 29 1 36 -8 12z"/>
<path d="M2771 2064 c0 -11 3 -14 6 -6 3 7 2 16 -1 19 -3 4 -6 -2 -5 -13z"/>
<path d="M2722 1735 c0 -16 2 -22 5 -12 2 9 2 23 0 30 -3 6 -5 -1 -5 -18z"/>
<path d="M2701 1704 c0 -11 3 -14 6 -6 3 7 2 16 -1 19 -3 4 -6 -2 -5 -13z"/>
<path d="M2762 1670 c0 -14 2 -19 5 -12 2 6 2 18 0 25 -3 6 -5 1 -5 -13z"/>
<path d="M2702 1650 c0 -14 2 -19 5 -12 2 6 2 18 0 25 -3 6 -5 1 -5 -13z"/>
<path d="M2763 1605 c0 -22 2 -30 4 -17 2 12 2 30 0 40 -3 9 -5 -1 -4 -23z"/>
<path d="M3023 1245 c0 -27 2 -38 4 -22 2 15 2 37 0 50 -2 12 -4 0 -4 -28z"/>
<path d="M2751 1174 c0 -11 3 -14 6 -6 3 7 2 16 -1 19 -3 4 -6 -2 -5 -13z"/>
<path d="M3012 1130 c0 -14 2 -19 5 -12 2 6 2 18 0 25 -3 6 -5 1 -5 -13z"/>
<path d="M2996 989 c-4 -56 -5 -103 -3 -106 3 -2 8 36 11 84 4 48 10 96 12
106 3 9 1 17 -4 17 -5 0 -12 -46 -16 -101z"/>
<path d="M3051 884 c0 -11 3 -14 6 -6 3 7 2 16 -1 19 -3 4 -6 -2 -5 -13z"/>
<path d="M2781 724 c0 -11 3 -14 6 -6 3 7 2 16 -1 19 -3 4 -6 -2 -5 -13z"/>
<path d="M3062 690 c0 -14 2 -19 5 -12 2 6 2 18 0 25 -3 6 -5 1 -5 -13z"/>
<path d="M2968 637 c-3 -19 -2 -25 4 -19 6 6 8 18 6 28 -3 14 -5 12 -10 -9z"/>
<path d="M2850 605 c0 -8 5 -15 10 -15 6 0 10 7 10 15 0 8 -4 15 -10 15 -5 0
-10 -7 -10 -15z"/>
<path d="M2690 2164 c0 -8 5 -12 10 -9 6 3 10 10 10 16 0 5 -4 9 -10 9 -5 0
-10 -7 -10 -16z"/>
<path d="M2466 2214 c-4 -14 -5 -29 -2 -31 3 -3 8 7 12 21 3 15 4 29 1 32 -2
3 -8 -7 -11 -22z"/>
<path d="M2371 2144 c0 -11 3 -14 6 -6 3 7 2 16 -1 19 -3 4 -6 -2 -5 -13z"/>
<path d="M2371 2064 c0 -11 3 -14 6 -6 3 7 2 16 -1 19 -3 4 -6 -2 -5 -13z"/>
<path d="M2391 1784 c0 -11 3 -14 6 -6 3 7 2 16 -1 19 -3 4 -6 -2 -5 -13z"/>
<path d="M2371 1734 c0 -11 3 -14 6 -6 3 7 2 16 -1 19 -3 4 -6 -2 -5 -13z"/>
<path d="M2373 1665 c0 -22 2 -30 4 -17 2 12 2 30 0 40 -3 9 -5 -1 -4 -23z"/>
<path d="M2372 1550 c0 -14 2 -19 5 -12 2 6 2 18 0 25 -3 6 -5 1 -5 -13z"/>
<path d="M1701 1434 c0 -11 3 -14 6 -6 3 7 2 16 -1 19 -3 4 -6 -2 -5 -13z"/>
<path d="M2661 1319 c-7 -22 -11 -43 -8 -45 2 -2 9 14 16 37 7 22 11 43 8 45
-2 2 -9 -14 -16 -37z"/>
<path d="M2381 1338 c0 -9 -4 -25 -7 -35 -5 -14 -4 -15 5 -7 7 7 11 22 8 35
-2 13 -5 16 -6 7z"/>
<path d="M2461 1315 c1 -21 37 -127 38 -110 0 6 -8 37 -19 70 -10 33 -19 51
-19 40z"/>
<path d="M2392 1265 c0 -16 2 -22 5 -12 2 9 2 23 0 30 -3 6 -5 -1 -5 -18z"/>
<path d="M2391 1214 c0 -11 3 -14 6 -6 3 7 2 16 -1 19 -3 4 -6 -2 -5 -13z"/>
<path d="M2607 1143 c-15 -47 -26 -88 -23 -90 2 -2 16 35 30 83 15 47 25 88
23 90 -2 2 -16 -35 -30 -83z"/>
<path d="M2511 1144 c0 -11 3 -14 6 -6 3 7 2 16 -1 19 -3 4 -6 -2 -5 -13z"/>
<path d="M2372 1120 c0 -14 2 -19 5 -12 2 6 2 18 0 25 -3 6 -5 1 -5 -13z"/>
<path d="M1640 1120 c-13 -8 -12 -10 3 -10 9 0 17 5 17 10 0 12 -1 12 -20 0z"/>
<path d="M2432 1090 c0 -14 2 -19 5 -12 2 6 2 18 0 25 -3 6 -5 1 -5 -13z"/>
<path d="M2391 1054 c0 -11 3 -14 6 -6 3 7 2 16 -1 19 -3 4 -6 -2 -5 -13z"/>
<path d="M1031 1024 c0 -11 3 -14 6 -6 3 7 2 16 -1 19 -3 4 -6 -2 -5 -13z"/>
<path d="M1053 995 c0 -22 2 -30 4 -17 2 12 2 30 0 40 -3 9 -5 -1 -4 -23z"/>
<path d="M1010 919 c0 -16 4 -28 9 -25 8 5 3 56 -5 56 -2 0 -4 -14 -4 -31z"/>
<path d="M2341 784 c-7 -30 -11 -57 -8 -60 2 -2 9 21 16 52 7 30 11 57 8 60
-2 2 -9 -21 -16 -52z"/>
<path d="M230 1806 c0 -8 4 -17 9 -20 5 -4 7 3 4 14 -6 23 -13 26 -13 6z"/>
<path d="M211 1735 c0 -11 6 -47 14 -80 l14 -60 -5 53 c-7 61 -22 120 -23 87z"/>
<path d="M337 1730 c3 -36 7 -67 9 -69 10 -11 9 9 -2 69 l-13 65 6 -65z"/>
<path d="M362 1580 c0 -14 2 -19 5 -12 2 6 2 18 0 25 -3 6 -5 1 -5 -13z"/>
<path d="M3261 1734 c0 -11 3 -14 6 -6 3 7 2 16 -1 19 -3 4 -6 -2 -5 -13z"/>
<path d="M3246 1695 c-3 -9 -6 -22 -5 -28 0 -7 5 -1 10 12 5 13 8 26 5 28 -2
2 -6 -3 -10 -12z"/>
<path d="M660 1541 c0 -11 4 -22 9 -25 5 -3 8 5 7 19 -1 29 -16 34 -16 6z"/>
<path d="M651 1484 c0 -11 3 -14 6 -6 3 7 2 16 -1 19 -3 4 -6 -2 -5 -13z"/>
<path d="M465 877 c-4 -10 -5 -21 -1 -24 10 -10 18 4 13 24 -4 17 -4 17 -12 0z"/>
<path d="M3396 533 c-8 -148 -7 -176 4 -187 7 -7 10 42 10 142 0 84 -2 152 -4
152 -2 0 -7 -48 -10 -107z"/>
<path d="M3350 440 c0 -5 4 -10 9 -10 6 0 13 5 16 10 3 6 -1 10 -9 10 -9 0
-16 -4 -16 -10z"/>
<path d="M664 351 c3 -5 14 -11 25 -14 14 -3 18 -1 14 9 -3 8 -14 14 -25 14
-10 0 -17 -4 -14 -9z"/>
<path d="M20 254 c0 -8 -4 -13 -8 -10 -5 3 -9 -8 -10 -24 -1 -35 13 -40 21 -7
2 12 8 30 12 40 4 10 3 17 -4 17 -6 0 -11 -7 -11 -16z"/>
<path d="M231 224 c0 -11 3 -14 6 -6 3 7 2 16 -1 19 -3 4 -6 -2 -5 -13z"/>
<path d="M90 188 c0 -4 3 -7 8 -7 4 1 9 0 12 -1 3 -1 24 -3 48 -4 28 -2 39 1
33 7 -12 12 -101 17 -101 5z"/>
<path d="M220 185 c0 -9 6 -12 15 -9 8 4 15 10 15 15 0 5 -7 9 -15 9 -8 0 -15
-7 -15 -15z"/>
<path d="M2490 116 c0 -10 28 -13 41 -5 10 6 7 9 -13 9 -16 0 -28 -2 -28 -4z"/>
<path d="M2550 110 c0 -5 4 -10 9 -10 6 0 13 5 16 10 3 6 -1 10 -9 10 -9 0
-16 -4 -16 -10z"/>
<path d="M2596 95 c4 -8 10 -15 15 -15 4 0 6 7 3 15 -4 8 -10 15 -15 15 -4 0
-6 -7 -3 -15z"/>
<path d="M2793 73 c9 -2 23 -2 30 0 6 3 -1 5 -18 5 -16 0 -22 -2 -12 -5z"/>
</g>
</svg>
